<?xml version="1.0" encoding="utf-8"?>
<!-- Generator: Adobe Illustrator 22.1.0, SVG Export Plug-In . SVG Version: 6.00 Build 0)  -->
<svg version="1.1" id="Layer_1" xmlns="http://www.w3.org/2000/svg" xmlns:xlink="http://www.w3.org/1999/xlink" x="0px" y="0px"
	 width="2000px" height="2000px" viewBox="0 0 2000 2000" style="enable-background:new 0 0 2000 2000;" xml:space="preserve">
<style type="text/css">
	.st0{fill:#FFFFFF;}
	.st1{fill:#FBDDE0;}
	.st2{fill:#F7C1C7;}
	.st3{fill:#F5ABB4;}
	.st4{fill:#F6B5BD;}
	.st5{fill:#2A2E4C;}
	.st6{fill:url(#SVGID_1_);}
	.st7{fill:url(#SVGID_2_);}
	.st8{fill:url(#SVGID_3_);}
	.st9{fill:url(#SVGID_4_);}
	.st10{fill:url(#SVGID_5_);}
	.st11{fill:url(#SVGID_6_);}
	.st12{fill:url(#SVGID_7_);}
	.st13{fill:url(#SVGID_8_);}
	.st14{fill:#9FFFFF;}
	.st15{fill:url(#SVGID_9_);}
	.st16{fill:url(#SVGID_10_);}
	.st17{fill:url(#SVGID_11_);}
	.st18{fill:url(#SVGID_12_);}
	.st19{fill:url(#SVGID_13_);}
	.st20{fill:url(#SVGID_14_);}
	.st21{fill:url(#SVGID_15_);}
	.st22{fill:url(#SVGID_16_);}
	.st23{fill:url(#SVGID_17_);}
	.st24{fill:url(#SVGID_18_);}
	.st25{fill:url(#SVGID_19_);}
	.st26{fill:url(#SVGID_20_);}
	.st27{fill:url(#SVGID_21_);}
	.st28{fill:url(#SVGID_22_);}
	.st29{fill:url(#SVGID_23_);}
	.st30{fill:url(#SVGID_24_);}
	.st31{fill:url(#SVGID_25_);}
	.st32{fill:#4755FC;}
	.st33{fill:#FAC515;}
	.st34{fill:url(#SVGID_26_);}
	.st35{fill:url(#SVGID_27_);}
	.st36{fill:url(#SVGID_28_);}
	.st37{fill:url(#SVGID_29_);}
	.st38{fill:url(#SVGID_30_);}
	.st39{fill:url(#SVGID_31_);}
	.st40{fill:url(#SVGID_32_);}
	.st41{fill:url(#SVGID_33_);}
	.st42{fill:url(#SVGID_34_);}
	.st43{fill:url(#SVGID_35_);}
	.st44{fill:url(#SVGID_36_);}
	.st45{fill:url(#SVGID_37_);}
	.st46{fill:url(#SVGID_38_);}
	.st47{fill:url(#SVGID_39_);}
	.st48{fill:url(#SVGID_40_);}
	.st49{fill:url(#SVGID_41_);}
	.st50{fill:url(#SVGID_42_);}
	.st51{fill:url(#SVGID_43_);}
</style>
<g>
	<rect class="st0" width="2000" height="2000"/>
	<g>
		<path class="st1" d="M791.4,1658.6c37.8-1.7,75.8-7,112.6-15.4c7.9-1.9,15.1-4.8,21.8-8.8c-0.2,0-0.4,0.1-0.6,0.1
			c-39.1,7.7-79.2,12.4-119.2,12.4c-3.1,0-6.2,0-9.3-0.1c-4.7-0.1-9.5-0.2-14.2-0.4c-26.6,2.9-53.2,4.6-79.8,4.6
			c-8,0-16-0.2-24.1-0.5c0.7,0.1,1.4,0.2,2.1,0.3c30.9,4.6,61.6,8,92.7,8C779.5,1659,785.4,1658.8,791.4,1658.6z"/>
		<path class="st1" d="M189.1,909.1c30.9,61.7,77.1,114.4,108.7,175.6c0.7-4.4,1.3-8.8,1.9-13.1c5.1-41.2,7.1-82.3,2.7-123.6
			c-1.7-11-3.8-21.9-6.2-32.7C271.4,802.7,214.6,699.7,193.9,586c-0.4-2.1-0.8-4.3-1.1-6.4c-9.8,17.5-17.6,35.9-25.2,54.7
			c-6.8,17-12,34.6-14.8,52.7c-4.2,26.2-7.9,52.5-5.5,79c2.2,25.4,5.9,51.3,13.7,75.7C168.4,864.8,178.2,887.4,189.1,909.1z"/>
		<path class="st1" d="M965,1608.9c-3.1,3.7-6.6,7.2-10.4,10.4c18.6,0.4,37.1,1.8,55.6,3.9c12,1.8,23.9,3.9,35.8,6.2
			C1019,1622.3,992.1,1615,965,1608.9z"/>
		<path class="st1" d="M1655.7,499.8c-36.5-32.5-75.6-56.2-121.8-72.1c-23.2-8-47.6-11-71.9-13.6c-8.1-0.9-16.3-1.3-24.5-1.3
			c-8,0-16,0.4-24,1.2c-41.4,3.9-81.1,12.2-120.3,25.8c-59.4,20.5-116.9,48.8-178,63.9c4.4,4.8,9,9.3,13.9,13.6
			c7.8,5.3,15.9,10,24.4,14.1c13.1,4.8,26.5,8.2,40.3,10.6c9.6,0.9,19.2,1.4,28.7,1.4c11.6,0,23.2-0.6,34.7-1.8
			c11.2-1.8,22.3-4.1,33.3-6.7c32.2-7.6,63.7-17.8,95.6-26.5c36.8-10.1,74.3-17.8,112.5-20.3c6.5-0.4,13.1-0.7,19.7-0.7
			c59.6,0,119.7,17.9,170.7,48.1c-0.1-0.1-0.1-0.2-0.2-0.3C1678.7,522.3,1667.7,510.5,1655.7,499.8z"/>
		<path class="st1" d="M1585.5,1544.2c-3.7,3.5-7.4,6.8-11.2,10.1c-28,24-58.3,45.4-91.8,61c-37.5,17.4-76.1,31-116.9,38.1
			c-34.7,6-69.7,9.7-104.9,9.7c-6.1,0-12.1-0.1-18.2-0.3c-24.5-0.9-49-3.3-73.3-6.9c14.6,3.2,29.3,6.2,44,9
			c43.6,8.2,87.9,14.9,132.2,17.1c8,0.4,16.1,0.6,24.1,0.6c35.6,0,71.2-3.8,106.1-10.7c34.8-6.9,68.4-20.2,100-35.9
			c31.6-15.6,61.2-37.3,86.6-61.6c15.3-14.6,28.1-31.5,40.6-48.5c7.9-10.6,14.7-21.9,20.3-33.9c9.6-20.5,18.7-41.6,23.5-63.8
			c5.5-25.1,8.5-51.3,9.2-77c0.3-12.9,0-25.8-0.5-38.7c-22.3,43.6-45.2,87.3-72.9,127.5C1655.4,1479.1,1623.6,1515.8,1585.5,1544.2z
			"/>
		<path class="st1" d="M311.3,1199.9c2.2-7.7,4.8-15.4,7.7-22.9c-0.4-10.7-1-21.4-2.1-32.1c-2.9-16.2-7.2-32-12.9-47.4
			c-2-4.3-4.1-8.6-6.3-12.8c-9.1,60.2-21.2,120.2-23.2,181.1c-2.3,69.1,11.3,140.4,48.1,199.7c33.4,53.8,82.1,98,137.6,128.3
			c61.8,33.8,129.1,50.4,199,55.7c6.5,0.5,12.9,0.9,19.4,1.1c-24.9-3.8-49.4-9.9-73.1-18.4c-30-10.8-59.9-23.7-87.2-40.5
			c-25.5-15.7-49.7-34.4-71.7-54.8c-14.2-13.2-27.2-27.8-39.2-43.1c-5.8-5.5-11.5-11.2-16.9-17.1c-24.4-26.4-47.2-56.3-61.9-89.3
			c-8.6-19.3-16.9-38.8-21.2-59.6c-4.3-20.7-7.3-42.6-6.3-63.9C302.3,1242.5,305.4,1220.6,311.3,1199.9z"/>
		<path class="st1" d="M1018.9,495.2c5.3,4.1,10.6,8.1,16,12.2c2.6,0.5,5.1,1,7.7,1.5c7.8,0.7,15.6,1,23.4,1c8.1,0,16.1-0.3,24.2-1
			c8.4-1.5,16.7-3.3,24.9-5.3c-1.6-1.8-3.2-3.5-4.8-5.4c-25.7-36.7-40.3-79.6-60.6-119.3c-27.4-53.4-68.1-96.5-118.1-129.5
			c-47.3-31.2-102.8-51.2-158-62.8c-61.1-12.8-124-18.1-186.2-22.1c-18-1.2-36.4-1.9-54.8-1.9c-95.2,0-192.6,19-260.7,90.9
			c-38.9,41.1-65.6,93.9-77.8,149.1c-13,59.2-11.5,117.6-1.3,176.9c3.1-5.4,6.3-10.8,9.8-16.1c14.1-21.2,30-41.7,47.8-59.9
			c18.6-19,40.1-35.5,62-50.4c16.2-11.1,33.5-20.5,51.5-28.4c8.9-3.9,17.9-7.7,26.9-11.4c6.1-9.8,13.6-19,20.8-27.9
			c26.5-33,65.9-54.5,105.5-67.7c20.4-6.8,41.6-9.5,62.9-12.1c10-1.2,20-1.8,30-1.8c5.2,0,10.4,0.1,15.5,0.4
			c79.1,4.3,153.5,31,222,69.9C908.4,408.9,963.7,452.4,1018.9,495.2z"/>
		<path class="st1" d="M1760.8,1120.1c-4.7,37.1-8.2,74.3-8.5,111.7c-0.2,27,1.9,53.9,3,80.8c5.2-10.2,10.4-20.5,15.6-30.6
			c62.8-122.7,120-256,113.5-396.8c-3.3-71.6-20.8-142.1-55.4-205.1c-32.3-58.9-81.1-109.4-138.7-143.9c-0.5-0.3-1-0.6-1.5-0.9
			c14.9,18.9,29.5,37.7,41.5,58.6c45.4,79.8,61.8,172.9,60.7,263.9C1790,945.9,1773.1,1033,1760.8,1120.1z"/>
		<path class="st2" d="M1791,857.7c1.1-90.9-15.3-184.1-60.7-263.9c-11.9-20.9-26.5-39.8-41.5-58.6
			c-51.1-30.2-111.1-48.1-170.7-48.1c-6.6,0-13.1,0.2-19.7,0.7c-38.1,2.6-75.7,10.2-112.5,20.3c-31.9,8.8-63.4,18.9-95.6,26.5
			c-11,2.6-22.1,4.9-33.3,6.7c-11.5,1.2-23.1,1.8-34.7,1.8c-9.6,0-19.2-0.4-28.7-1.4c-13.7-2.4-27.2-5.9-40.3-10.6
			c-8.5-4.1-16.6-8.8-24.4-14.1c-4.9-4.3-9.5-8.8-13.9-13.6c-8.2,2-16.6,3.8-24.9,5.3c-8.1,0.7-16.1,1-24.2,1
			c-7.8,0-15.6-0.3-23.4-1c-2.6-0.5-5.1-1-7.7-1.5c52,39.3,106,76.6,165.6,103.3c25.3,10,51.5,17.7,78.3,22.3
			c10.2,1,20.3,1.5,30.5,1.5c11.8,0,23.6-0.6,35.4-1.9c55.9-8.9,111.3-25.4,168.2-25.4c4.1,0,8.2,0.1,12.4,0.3
			c17.4,0.8,34.9,3.1,51.9,6.3c11.4,2.2,22.4,5.5,33.1,9.9c16.2,6.6,32.2,13,46.3,23.5c12.9,9.5,26,19.2,36.5,31.4
			c21.6,25,36.1,50.7,47.1,81.9c8.7,24.8,12.2,51.8,13.7,77.9c1.6,27.3-1.8,54.3-5.9,81.3c-3.5,23.1-9.9,45.7-16.7,68
			c-14,45.3-31,89.9-39,136.8c-3.7,40,1.8,79.6,5.5,119.5c4,44.3,2.6,89.1-9.2,132.3c-9.4,34.3-24.7,68.2-44.4,97.8
			c-16.8,25.2-36.2,49.3-58.4,70.2c38.1-28.3,69.8-65.1,96.9-104.2c27.7-40.2,50.7-83.9,72.9-127.5c-1.1-26.9-3.2-53.8-3-80.8
			c0.3-37.4,3.8-74.6,8.5-111.7C1773.1,1033,1790,945.9,1791,857.7z"/>
		<path class="st2" d="M371.1,455.9c4.9-12.8,10.2-26.1,17.1-38.2c0.8-1.5,1.7-2.9,2.6-4.3c-9,3.6-17.9,7.5-26.9,11.4
			c-18,7.9-35.3,17.3-51.5,28.4c-21.9,14.9-43.4,31.5-62,50.4c-17.8,18.2-33.7,38.7-47.8,59.9c-3.5,5.2-6.8,10.6-9.8,16.1
			c0.4,2.1,0.7,4.3,1.1,6.4c20.7,113.7,77.5,216.7,102.3,329.3c2.4,10.8,4.4,21.8,6.2,32.7c4.5,41.3,2.4,82.4-2.7,123.6
			c-0.6,4.4-1.3,8.8-1.9,13.1c2.2,4.2,4.3,8.5,6.3,12.8c5.7,15.4,10,31.2,12.9,47.4c1,10.7,1.6,21.4,2.1,32.1
			c4.8-12.5,10.3-24.7,16-36.6c25.8-53.9,64.4-100.4,89.5-154.6c8.5-22.1,14.7-44.9,18.6-68.2c2.4-23.7,2.5-47.6,0.1-71.4
			c-6.1-35.7-18.1-69.7-31.9-103.3c-15.1-36.7-31.8-73.1-42-111.6c-5.7-21.8-8.9-44.3-11.1-66.7c-1.5-15.3-1.6-30.7,0.1-45.9
			C360.8,497.5,363.4,476,371.1,455.9z"/>
		<path class="st2" d="M446.8,1536.9c22,20.4,46.2,39,71.7,54.8c27.2,16.8,57.2,29.6,87.2,40.5c23.7,8.6,48.2,14.6,73.1,18.4
			c8,0.3,16,0.5,24.1,0.5c26.6,0,53.3-1.7,79.8-4.6c-37.6-1.6-75.3-6.8-111.9-15.1c-37.9-8.5-73.9-21.9-109.6-37.2
			c-29.9-12.8-58.5-28.3-85.4-46.5c-23.9-16.2-47.2-33.9-68.2-53.8C419.6,1509.1,432.5,1523.7,446.8,1536.9z"/>
		<path class="st1" d="M938.2,1625.3c-3.8,3.5-7.9,6.6-12.3,9.2c9.9-2.1,20-7.9,28.7-15.2c-2.7-0.1-5.5-0.1-8.2-0.1
			C943.8,1621.3,941.1,1623.4,938.2,1625.3z"/>
		<path class="st1" d="M1045.9,1629.3c24.1,6.3,48.2,12.4,72.5,17.5c16.8,3.5,33.7,6.6,50.8,9.1
			C1128.1,1647,1087.2,1637.1,1045.9,1629.3z"/>
		<path class="st2" d="M925.3,1634.6c0.2,0,0.4-0.1,0.6-0.1c4.4-2.6,8.5-5.7,12.3-9.2c2.9-1.9,5.6-3.9,8.2-6.1
			c2.7,0,5.5,0.1,8.2,0.1c3.8-3.2,7.3-6.7,10.4-10.4c27.1,6.2,54,13.4,81,20.4c41.3,7.8,82.2,17.7,123.3,26.6
			c24.3,3.6,48.8,6,73.3,6.9c6.1,0.2,12.1,0.3,18.2,0.3c35.2,0,70.2-3.7,104.9-9.7c40.8-7.1,79.4-20.8,116.9-38.1
			c33.6-15.5,63.8-37,91.8-61c3.8-3.3,7.6-6.6,11.2-10.1c-16.6,12.3-34.4,23.1-53.6,31.8c-31,14-62.5,25-96.1,30.7
			c-33.3,5.7-66.9,8.9-100.6,8.9c-0.9,0-1.8,0-2.6,0c-63-0.3-125.3-9.9-187.6-18.5c-43.3-5.7-87-10.4-130.7-10.4
			c-18.7,0-37.4,0.9-56.1,2.9c-3.1,0.5-6.3,1.1-9.4,1.6c-0.4,0.7-0.7,1.3-1.1,2c-8.5,14.6-25.7,29.2-42.7,32.8
			c-40.3,8.5-81.3,16-122.6,20.5c4.7,0.2,9.5,0.4,14.2,0.4c3.1,0.1,6.2,0.1,9.3,0.1C846,1647,886.1,1642.3,925.3,1634.6z"/>
		<path class="st2" d="M524.2,382.4c15.1-1.7,30.1-2.4,45-2.4c33.7,0,67.3,3.7,101,8.5c90.2,12.8,173.5,47.9,256.7,83.2
			c35,14.6,70.7,28.1,107.9,35.7c-5.4-4-10.7-8.1-16-12.2c-55.2-42.8-110.5-86.3-171.4-120.9c-68.5-38.9-142.9-65.6-222-69.9
			c-5.2-0.3-10.4-0.4-15.5-0.4c-10,0-20,0.6-30,1.8c-21.3,2.6-42.5,5.3-62.9,12.1c-39.6,13.2-78.9,34.7-105.5,67.7
			c-7.2,8.9-14.6,18.1-20.8,27.9c16.5-6.7,33.3-12.7,50.7-17.2C468.6,389.3,496.5,385.5,524.2,382.4z"/>
		<path class="st2" d="M351.7,1399.7c-11-26-19.4-51.7-23.4-79.7c-5.1-35.6-7.7-70.5-8.3-106.4c-0.2-12.2-0.4-24.4-0.9-36.6
			c-2.9,7.5-5.5,15.2-7.7,22.9c-5.9,20.7-9.1,42.6-10.1,64c-1,21.3,2,43.2,6.3,63.9c4.3,20.8,12.6,40.3,21.2,59.6
			c14.7,33,37.5,62.9,61.9,89.3c5.4,5.9,11.1,11.6,16.9,17.1c-6.6-8.3-12.9-16.9-19-25.5C373.2,1447,361.9,1423.9,351.7,1399.7z"/>
		<path class="st3" d="M424.6,985.8c-25.1,54.2-63.8,100.7-89.5,154.6c-5.7,11.9-11.2,24.1-16,36.6c0.5,12.2,0.7,24.4,0.9,36.6
			c0.6,35.9,3.2,70.8,8.3,106.4c4,28,12.5,53.8,23.4,79.7c10.2,24.2,21.5,47.3,36.8,68.7c6.1,8.6,12.5,17.1,19,25.5
			c21,19.9,44.3,37.7,68.2,53.8c26.9,18.2,55.6,33.7,85.4,46.5c35.7,15.3,71.6,28.7,109.6,37.2c36.6,8.2,74.3,13.4,111.9,15.1
			c41.3-4.5,82.3-12,122.6-20.5c16.9-3.6,34.1-18.2,42.7-32.8c0.4-0.6,0.7-1.3,1.1-2c3.1-0.6,6.3-1.1,9.4-1.6
			c18.6-2,37.4-2.9,56.1-2.9c43.7,0,87.4,4.7,130.7,10.4c62.3,8.5,124.6,18.2,187.6,18.5c0.9,0,1.8,0,2.6,0
			c33.8,0,67.3-3.2,100.6-8.9c33.6-5.7,65-16.7,96.1-30.7c19.2-8.7,37-19.4,53.6-31.8c22.2-20.9,41.6-45,58.4-70.2
			c19.7-29.6,35-63.5,44.4-97.8c11.8-43.1,13.3-88,9.2-132.3c-3.6-39.9-9.1-79.5-5.5-119.5c8-46.8,25.1-91.5,39-136.8
			c6.9-22.3,13.2-44.9,16.7-68c4.1-27,7.5-54,5.9-81.3c-1.5-26-5-53.1-13.7-77.9c-11-31.2-25.4-56.9-47.1-81.9
			c-10.5-12.2-23.6-21.8-36.5-31.4c-14.1-10.4-30.1-16.8-46.3-23.5c-10.7-4.4-21.7-7.7-33.1-9.9c-17-3.3-34.6-5.6-51.9-6.3
			c-4.1-0.2-8.3-0.3-12.4-0.3c-56.9,0-112.3,16.5-168.2,25.4c-11.8,1.2-23.6,1.9-35.4,1.9c-10.2,0-20.3-0.5-30.5-1.5
			c-26.8-4.6-53-12.3-78.3-22.3c-59.5-26.7-113.6-64-165.6-103.3c-37.2-7.6-72.9-21.1-107.9-35.7c-83.2-35.3-166.5-70.4-256.7-83.2
			c-33.8-4.8-67.3-8.5-101-8.5c-15,0-29.9,0.7-45,2.4c-27.8,3.1-55.7,6.8-82.7,13.8c-17.4,4.5-34.1,10.5-50.7,17.2
			c-0.9,1.4-1.8,2.9-2.6,4.3c-6.9,12-12.2,25.4-17.1,38.2c-7.7,20.1-10.3,41.6-12.7,62.8c-1.7,15.3-1.5,30.7-0.1,45.9
			c2.1,22.4,5.3,44.9,11.1,66.7c10.1,38.5,26.9,74.9,42,111.6c13.8,33.5,25.8,67.6,31.9,103.3c2.3,23.7,2.3,47.6-0.1,71.4
			C439.2,940.9,433,963.7,424.6,985.8z"/>
		<path class="st4" d="M1147.3,439.1c1.8,0,3.5-0.4,5-1.3c4.9-2.9,6-8.8,3.6-13.6c-2.9-5.9-5.9-11.8-8.8-17.6
			c-1.6-3.2-5.1-4.8-8.6-4.8c-1.8,0-3.5,0.4-5,1.3c-4.9,2.9-6,8.8-3.6,13.6c2.9,5.9,5.9,11.8,8.8,17.6
			C1140.3,437.4,1143.8,439.1,1147.3,439.1z"/>
		<path class="st4" d="M1196,410.4c0.8,0,1.6-0.1,2.4-0.3c5.6-1.5,7.9-6.9,6.9-12.2c-1.8-10-6.7-19.1-13.6-26.4
			c-2-2.2-4.3-3.1-6.6-3.1c-7.4,0-14.2,10-7.4,17.1c4.7,5,7.3,10.9,8.5,17.7C1187,407.6,1191.7,410.4,1196,410.4z"/>
		<path class="st4" d="M1255.3,397.2c5.4-0.2,9.9-4.4,9.9-9.9c0-4.4,0-8.8,0-13.2c0-5.1-4.4-9.9-9.6-9.9c-0.1,0-0.2,0-0.4,0
			c-5.4,0.2-9.9,4.4-9.9,9.9c0,4.4,0,8.8,0,13.2c0,5.1,4.4,9.9,9.6,9.9C1255.1,397.3,1255.2,397.3,1255.3,397.2z"/>
		<path class="st4" d="M1299.6,373c0.9,0,1.7-0.1,2.5-0.4c5.6-1.8,7.7-6.7,6.9-12.2c-0.7-5.1-1.5-10.3-2.2-15.4
			c-0.6-4.3-5.5-7.3-9.8-7.3c-0.9,0-1.7,0.1-2.5,0.4c-5.6,1.8-7.7,6.7-6.9,12.2c0.7,5.1,1.5,10.3,2.2,15.4
			C1290.5,370,1295.3,373,1299.6,373z"/>
		<path class="st4" d="M1374.4,362c5.4-0.2,9.9-4.4,9.9-9.9c0-4.4,0-8.8,0-13.2c0-5.1-4.4-9.9-9.6-9.9c-0.1,0-0.2,0-0.4,0
			c-5.4,0.2-9.9,4.4-9.9,9.9c0,4.4,0,8.8,0,13.2c0,5.1,4.4,9.9,9.6,9.9C1374.2,362,1374.3,362,1374.4,362z"/>
		<path class="st4" d="M1423.1,355.4c0.9,0,1.7-0.1,2.5-0.4c5.6-1.8,7.8-6.7,6.9-12.2c-0.7-4.4-1.5-8.8-2.2-13.2
			c-0.7-4.3-5.4-7.3-9.7-7.3c-0.9,0-1.7,0.1-2.5,0.4c-5.6,1.8-7.8,6.7-6.9,12.2c0.7,4.4,1.5,8.8,2.2,13.2
			C1414.1,352.3,1418.8,355.4,1423.1,355.4z"/>
		<path class="st4" d="M1486.5,368.6c0.1,0,0.2,0,0.4,0c5.4-0.2,9.9-4.4,9.9-9.9c0-5.1,0-10.3,0-15.4c0-5.1-4.4-9.9-9.6-9.9
			c-0.1,0-0.2,0-0.4,0c-5.4,0.2-9.9,4.4-9.9,9.9c0,5.1,0,10.3,0,15.4C1477,363.7,1481.3,368.6,1486.5,368.6z"/>
		<path class="st4" d="M1553.7,384.2c4.4,0,8.5-2.7,9.8-7.2c1.4-5.2,2.9-10.3,4.3-15.5c1.4-5-1.7-11-6.9-12.2
			c-0.8-0.2-1.6-0.3-2.4-0.3c-4.4,0-8.5,2.7-9.8,7.2c-1.4,5.2-2.9,10.3-4.3,15.5c-1.4,5,1.7,11,6.9,12.2
			C1552,384.1,1552.9,384.2,1553.7,384.2z"/>
		<path class="st4" d="M1608.2,410.4c3.4,0,6.7-1.6,8.5-4.8c2.9-5.1,5.9-10.3,8.8-15.4c2.6-4.5,1.2-11.1-3.6-13.6
			c-1.6-0.8-3.3-1.3-5.1-1.3c-3.4,0-6.7,1.6-8.5,4.8c-2.9,5.1-5.9,10.3-8.8,15.4c-2.6,4.5-1.2,11.1,3.6,13.6
			C1604.8,410,1606.5,410.4,1608.2,410.4z"/>
		<path class="st4" d="M1668,450.2c3.4,0,6.7-1.6,8.5-4.8c3-5.1,5.9-10.3,8.9-15.4c2.6-4.5,1.2-11.1-3.6-13.6
			c-1.6-0.8-3.3-1.3-5-1.3c-3.4,0-6.7,1.6-8.5,4.8c-3,5.1-5.9,10.3-8.9,15.4c-2.6,4.5-1.2,11.1,3.6,13.6
			C1664.6,449.8,1666.3,450.2,1668,450.2z"/>
		<path class="st4" d="M240.7,1464.5c1.7,0,3.5-0.4,5.1-1.2c5.9-2.9,11.8-5.9,17.6-8.8c4.8-2.4,6.1-9.2,3.6-13.6
			c-1.9-3.2-5.1-4.8-8.5-4.8c-1.7,0-3.5,0.4-5.1,1.2c-5.9,2.9-11.8,5.9-17.6,8.8c-4.8,2.4-6.1,9.2-3.6,13.6
			C234.1,1463,237.4,1464.5,240.7,1464.5z"/>
		<path class="st4" d="M266.9,1508.4c3.4,0,6.5-1.8,8.6-4.8c3.6-5.2,7.3-10.3,10.9-15.5c3-4.3,0.9-11.2-3.6-13.6
			c-1.7-0.9-3.3-1.3-4.9-1.3c-3.4,0-6.5,1.8-8.6,4.8c-3.6,5.2-7.3,10.3-10.9,15.5c-3,4.3-0.9,11.2,3.6,13.6
			C263.6,1508,265.2,1508.4,266.9,1508.4z"/>
		<path class="st4" d="M317.3,1534.2c0.7-5.9,1.5-11.8,2.2-17.6c0.7-5.3-5-9.9-9.9-9.9c-5.9,0-9.3,4.6-9.9,9.9
			c-0.7,5.9-1.5,11.8-2.2,17.6c-0.7,5.3,5,9.9,9.9,9.9C313.3,1544.1,316.6,1539.5,317.3,1534.2z"/>
		<path class="st4" d="M337.3,1606.7c1.4,0.8,3.2,1.3,5,1.3c3.5,0,7.1-1.6,8.5-4.8c5.4-12.1,8.3-24.8,8-38.1
			c-0.1-6.4-5.2-9.6-10.2-9.6c-5,0-9.8,3.2-9.7,9.6c0.2,9.7-1.3,19.2-5.3,28.1C331.5,1598,332.3,1603.7,337.3,1606.7z"/>
		<path class="st4" d="M381.4,1633.1c1.4,0.8,3.2,1.3,5,1.3c3.5,0,7.1-1.6,8.5-4.8c4.7-10.7,7-21.9,5.8-33.7
			c-0.6-5.3-4.1-9.9-9.9-9.9c-4.9,0-10.5,4.6-9.9,9.9c0.9,8.1,0.2,16.1-3.1,23.7C375.7,1624.4,376.4,1630.2,381.4,1633.1z"/>
		<path class="st4" d="M455.9,1662c0-13.2,0-26.5,0-39.7c0-6.4-5-9.6-9.9-9.6c-5,0-9.9,3.2-9.9,9.6c0,13.2,0,26.5,0,39.7
			c0,6.4,5,9.6,9.9,9.6C450.9,1671.6,455.9,1668.4,455.9,1662z"/>
		<path class="st4" d="M506.4,1700.2c5,0,9.7-3.2,9.4-9.6c-0.7-12.5-1.4-25-2.1-37.5c-0.4-6.4-5.5-9.6-10.5-9.6
			c-5,0-9.7,3.2-9.4,9.6c0.7,12.5,1.4,25,2.1,37.5C496.3,1697,501.5,1700.2,506.4,1700.2z"/>
		<path class="st4" d="M572.7,1715c0-11,0-22.1,0-33.1c0-6.4-5-9.6-9.9-9.6c-5,0-9.9,3.2-9.9,9.6c0,11,0,22.1,0,33.1
			c0,6.4,5,9.6,9.9,9.6C567.8,1724.6,572.7,1721.4,572.7,1715z"/>
		<path class="st4" d="M632.3,1726c0-9.6,0-19.1,0-28.7c0-6.4-5-9.6-9.9-9.6c-5,0-9.9,3.2-9.9,9.6c0,9.6,0,19.1,0,28.7
			c0,6.4,5,9.6,9.9,9.6C627.3,1735.6,632.3,1732.4,632.3,1726z"/>
	</g>
	<g>
		<g>
			<path class="st5" d="M792.8,399c0.4-1.5-1.9-2.1-2.3-0.6c-1.9,7.5-10.2,8.8-14.6,14.2c-2.8,3.3-3.8,7.7-3.9,12
				c-0.1,4.2,0.5,9,3.5,12.1c3.7,3.8,9.8,4,14.1,6.8c1.3,0.8,2.5-1.2,1.2-2.1c-3.7-2.4-8.4-2.7-12-5.1c-5.2-3.5-5.3-12.8-3.4-18.1
				C778.7,409.3,790.4,408.5,792.8,399z"/>
			<path class="st5" d="M795.2,452.9c0.7-0.1,1.4-0.5,1.9-1.3c9.5-14.7,25.8-48,0.2-56.7c-1.3-0.4-2.3,0-2.9,0.8
				c-1.1,0.3-2,1.2-2,2.8c0.4,11-14.7,15.4-15.9,26.5c-1.2,11.3,10.3,17.3,13.3,27C790.7,454.5,793.9,454.4,795.2,452.9z"/>
			<linearGradient id="SVGID_1_" gradientUnits="userSpaceOnUse" x1="815.4427" y1="1755.8021" x2="819.9894" y2="1705.4432">
				<stop  offset="0" style="stop-color:#CC5656"/>
				<stop  offset="1" style="stop-color:#B73E3E"/>
			</linearGradient>
			<path class="st6" d="M823.2,1749c-20.1,8-54.4,29.8-63.4,28.4c-9-1.4-20.1,15.2,0,13.9c20.1-1.4,55.8-6.9,66.2-6.6
				s49.9,9.4,51.6-5.5s-17-38.1-10.7-90.4c6.2-52.3-32.6,13.2-32.6,13.2S843.3,1741.1,823.2,1749z"/>
			<linearGradient id="SVGID_2_" gradientUnits="userSpaceOnUse" x1="995.8133" y1="1757.6664" x2="980.8264" y2="1677.8694">
				<stop  offset="0" style="stop-color:#CC5656"/>
				<stop  offset="1" style="stop-color:#B73E3E"/>
			</linearGradient>
			<path class="st7" d="M934,1605.6c0,1,5.9,27.4,17.3,73.1c11.4,45.7-9.4,58.6,0,71c9.4,12.5,28.4,12.1,38.5,30.8
				s27.7,31.5,47.5,25.6c19.7-5.9,7.6-34.6-30.5-66.9c-38.1-32.2-23.6-139.6-23.6-139.6L934,1605.6z"/>
			<linearGradient id="SVGID_3_" gradientUnits="userSpaceOnUse" x1="577.2446" y1="995.7533" x2="1069.1494" y2="995.7533">
				<stop  offset="0" style="stop-color:#CC5656"/>
				<stop  offset="1" style="stop-color:#B73E3E"/>
			</linearGradient>
			<path class="st8" d="M684.6,305.7c11.8-7.6,38.8-39.5,45-42.3c6.2-2.8,39.1-7.2,39.1-7.2s10.2-19.3-22.5-19.1
				c-10.1,0.1-16.2,0.1-19.8,0.1c-3.4,0-6.7,1.3-9.3,3.6c-12.5,11.5-50.5,46.8-53.4,53.7c-3.5,8.3-94.9,176.7-85.9,196.8
				s191.2,126.8,194,156.6c2.8,29.8-30.5,38.1-22.9,67.2c7.6,29.1,25,45,28.1,79c3.1,34-42.6,95.6-55.1,117.1
				c-12.5,21.5-47.8,116.8,22.9,413s-69.6,428.2-69.6,428.2s66.5,14.6,149.7-36.4s94.6-29.1,124.7-30.1c30.1-1,113.3-52,119.5-108.1
				c0,0-96.7-201.6-97.7-237c-1-35.3,0-170.5-19.7-281.7c-0.9-4.9-1.8-9.7-2.7-14.5c25.7-63.2,79.3-185.5,81.7-192.9
				c3.1-9.4-19.2-139.8-28.6-197.5c-8.5-52.3-47.6-56.8-54.8-57.2c-13.9-3.4-47.4-13.1-58-28.6c-13.5-19.7-13.5-59.2-13.5-73.8
				c0-14.6-43.4,34.6-43.4,34.6s3.2,34-3.7,41.6s-48.5,4.9-76.2-20.8c-27.7-25.6-112.9-62.4-117.1-70S672.8,313.3,684.6,305.7z
				 M902.8,843c6.2-33.3,32.2-116.4,39.5-129.9c0.5-0.9,1-2.2,1.4-3.9c3.3,16.2,24.2,91.5,32.4,121c2.1,7.7,1.9,15.9-0.8,23.4
				c-11.4,32.3-27.8,83.9-41.2,127.1C916.4,913.4,898.2,867.7,902.8,843z"/>
			<linearGradient id="SVGID_4_" gradientUnits="userSpaceOnUse" x1="825.4141" y1="487.1863" x2="870.0525" y2="427.6247">
				<stop  offset="0" style="stop-color:#CC5656"/>
				<stop  offset="1" style="stop-color:#B73E3E"/>
			</linearGradient>
			<path class="st9" d="M805.6,541.3c22.1,3.7,79.8-1.7,94.7-40.2c14.9-38.5,31.8-110.6-66-125.2c0,0-40.4,13.4-42.4,59.6
				c-0.1,2.9-0.3,5.9-0.5,8.8c-0.5,7.7-2.7,15.1-6.4,21.8c-3.6,6.5-7.3,13.7-7.4,15.6c-0.1,2.2,3.5,3.9,6.8,5.1
				c2.9,1,4.8,3.7,4.7,6.8C788,518.7,789.8,538.6,805.6,541.3z"/>
			<linearGradient id="SVGID_5_" gradientUnits="userSpaceOnUse" x1="619.1117" y1="830.4755" x2="918.6879" y2="1464.8533">
				<stop  offset="0" style="stop-color:#9FFFFF"/>
				<stop  offset="1" style="stop-color:#7AFCF8"/>
			</linearGradient>
			<path class="st10" d="M675.2,1752.5c0,0,66.5,14.6,149.7-36.4s94.6-29.1,124.7-30.1c30.1-1,113.3-52,119.5-108.1
				c0,0-96.7-201.6-97.7-237c-1-35.3,0-170.5-19.7-281.7c-0.9-4.9-1.8-9.7-2.7-14.5l-14.8-64.1c-17.8-67.2-36-113-31.3-137.6
				c6.2-33.3,32.2-116.4,39.5-129.9c0.1-0.2,0.2-0.4,0.3-0.7c-7.5-10.2-19.1-17.4-30.5-22.6c-16.5-7.4-34.4-11.4-52.5-11.4
				c-20.4,0-42.5,8.3-61.6-2.3c-9.3-5.2-17.7-12.1-27-16.7c-5,21.1-28.6,30.8-22.1,55.8c7.6,29.1,25,45,28.1,79
				c3.1,34-42.6,95.6-55.1,117.1c-12.5,21.5-47.8,116.8,22.9,413S675.2,1752.5,675.2,1752.5z"/>
			<path class="st5" d="M841.7,458.3c-5.3-5.1-8.1-12.1-10.8-18.7c-4.7-11.8-10.5-21.8-21.9-28.1c-1.2-0.6-2.2,1.1-1,1.8
				c7.6,4.2,13.3,10.2,17.1,18c3.3,6.6,5.3,13.7,8.9,20.1c2.7,4.9,6.4,9.5,11.4,12.3c5.1,2.8,10.7,3,16.3,2.6c1,2.7,1.6,5.5,2.1,8.3
				c1.4,9.6,1.7,20.5,4.8,29.9c1.5,10,4.9,20.2,15.6,23.3c2,0.6,4,0.9,6,1c1.2,0.4,2.3,0.8,3.6,1c13.3,2.6,21.4-9.9,19.7-21.8
				c0.8-3,1.1-6.1,1.4-9.1c0.8-10.5,0.8-21.4-3.2-31.3c-3.4-8.3-9.1-15.5-15.9-21.2c-8.6-7.2-18.7-12.3-29-16.7
				c-8.9-3.8-18.7-7.2-27.8-3.4c-2.3-1.5-6.4,0.5-5.6,4.1c0.1,0.4,0.2,0.8,0.3,1.3c-0.5-0.7-1-1.4-1.6-2c-0.9-1-2.3,0.5-1.5,1.5
				c6.1,7.3,9.1,16.6,15.5,23.7c3.8,4.2,8.5,7.1,13.5,9.6C852.9,464.4,846.8,463.3,841.7,458.3z M908.8,517.4c1.1-1.4,2-2.9,2.8-4.5
				c-0.2,4.4-1.9,8.7-5.5,11.7c-2.7,2.3-5.8,3.2-8.9,3.2C902.4,526.3,906.7,522.7,908.8,517.4z M883.6,522.1
				c6.1,2.9,13.5,3.1,19.4,0c-3.1,2.9-7.3,4.5-11.7,4.6c-1.6-0.6-3.1-1.3-4.6-2.2c-1.5-0.9-2.9-1.9-4.2-3
				C882.8,521.7,883.2,521.9,883.6,522.1z M872.3,512.3c2.8,5.2,6.8,9.9,11.6,13.2c-0.7-0.3-1.4-0.6-2.1-0.9
				C876.7,522,873.9,517.4,872.3,512.3C872.3,512.3,872.3,512.3,872.3,512.3z M844.5,449.5c-1.1-1.6-2.1-3.3-3.1-5
				c2.1,2.1,4.4,4.1,6.7,6c3.8,3.1,7.8,6.1,10.7,10.1c0.3,0.5,0.6,0.9,0.9,1.4C853.7,459,848.4,455.3,844.5,449.5z"/>
			<g>
				<g>
					<linearGradient id="SVGID_6_" gradientUnits="userSpaceOnUse" x1="1006.5613" y1="489.1182" x2="1006.5578" y2="489.1117">
						<stop  offset="0" style="stop-color:#4755FC"/>
						<stop  offset="1" style="stop-color:#2D43E2"/>
					</linearGradient>
					<path class="st11" d="M1006.5,489.1c0.1,0,0.1,0,0.1-0.1C1006.6,489.1,1006.5,489.1,1006.5,489.1z"/>
					<linearGradient id="SVGID_7_" gradientUnits="userSpaceOnUse" x1="1004.928" y1="490.0626" x2="1004.9142" y2="490.0366">
						<stop  offset="0" style="stop-color:#4755FC"/>
						<stop  offset="1" style="stop-color:#2D43E2"/>
					</linearGradient>
					<path class="st12" d="M1005,490c-0.1,0-0.1,0.1-0.2,0.1C1004.9,490.1,1004.9,490,1005,490z"/>
					<linearGradient id="SVGID_8_" gradientUnits="userSpaceOnUse" x1="1017.1528" y1="511.1938" x2="971.5491" y2="425.1062">
						<stop  offset="0" style="stop-color:#4755FC"/>
						<stop  offset="1" style="stop-color:#2D43E2"/>
					</linearGradient>
					<path class="st13" d="M937.2,451.5c-0.6,28.4,5.8,56.3,18.2,81.9c3,6.1,11.1,5.8,15.5,2c8.2-7.1,16.6-14,24.5-21.3
						c3.7-3.4,6.9-7.4,8.5-12.2c1.3-3.9,0.3-8.5,1.6-12.2c0.4-0.2,0.7-0.4,1-0.5c0,0,0.1,0,0.1-0.1c0,0-0.1,0-0.1,0.1
						c-0.4,0.2,2.7-0.7,3-0.7c3.1-0.7,6.3-1,9.4-1.7c8.3-1.9,15.6-6.7,18.5-15c3.2-9.1-0.4-18.3-2.9-27.1c-2.8-9.9-3.7-20.1-5-30.3
						c-2.4-18.7-6.6-38.4-20.6-52.1c-14.6-14.3-38.5-17.4-54.4-3.6c-5,4.4-3.6,10.3,0.3,13.7c-6.9,23.4-11.6,47.4-14,71.7
						C938.7,445.7,937.3,448.1,937.2,451.5z M1005.5,489.6c-0.1,0.2-0.3,0.2-0.5,0.3c-0.1,0-0.1,0.1-0.2,0.1c0-0.1,0.1-0.1,0.2-0.1
						C1005.1,489.9,1005.3,489.8,1005.5,489.6z"/>
					<g>
						<g>
							<path class="st14" d="M958.4,510c5.1-3.5,10.8-5.8,15.7-9.6c10.1-7.8,9.7-20.6,16.9-30.2c9.6-12.9,31.8-15.9,43-27.3
								c-0.6-2.2-1.1-4.5-1.5-6.7c-5.7,8.7-18.1,13.1-27.1,17.4c-11.2,5.2-19.3,11.9-23.7,23.7c-2.4,6.4-4.1,13.3-9.4,18
								c-5.2,4.7-12.2,7-17.8,11.2c-2.8,2.1-5.3,4.8-7,7.8c0.9,2.4,1.8,4.8,2.7,7.2C950.8,517,954.7,512.6,958.4,510z"/>
							<path class="st14" d="M964.6,492c7.5-8.8,8.8-21,15.3-30.4c3.8-5.5,8.8-10,14.6-13.3c6.1-3.4,12.9-4.7,19.3-7.3
								c7.5-3,13.5-8.2,17.2-14.9c-0.5-3.9-1-7.8-1.5-11.6c-1.2,7.2-4.7,13.6-10.7,18c-6.1,4.5-13.7,5.7-20.6,8.4
								c-11.2,4.4-20.6,12.8-26,23.6c-2.7,5.3-4.3,11.1-6.8,16.5c-3.2,7-7.8,11.5-15,14.3c-2.4,0.9-5.1,2-7.7,3.3
								c0.4,1.6,0.9,3.3,1.3,4.9c2.1-1,4.2-1.9,6.1-2.5C955.5,498.8,960.7,496.5,964.6,492z"/>
							<path class="st14" d="M1027.6,437.7c1-1.6,1.9-3.1,2.9-4.7c0.7-1.1-1.1-2.2-1.8-1c-1,1.6-1.9,3.1-2.9,4.7
								C1025.1,437.8,1026.9,438.8,1027.6,437.7z"/>
							<path class="st14" d="M997.9,455.1c1-0.4,2.1-0.9,3.1-1.3c0.5-0.2,0.9-0.7,0.7-1.3c-0.1-0.5-0.8-0.9-1.3-0.7
								c-1,0.4-2.1,0.9-3.1,1.3c-0.5,0.2-0.9,0.7-0.7,1.3C996.7,454.8,997.4,455.3,997.9,455.1z"/>
							<path class="st14" d="M1017.6,445.2c1.1-1,2.3-2.1,3.4-3.1c1-0.9-0.5-2.4-1.5-1.5c-1.1,1-2.3,2.1-3.4,3.1
								C1015.1,444.6,1016.6,446.1,1017.6,445.2z"/>
							<path class="st14" d="M1010.9,448.8c1.3-0.2,0.8-2.3-0.6-2c-1.4,0.3-2.8,0.5-4.2,0.8c-1.3,0.2-0.8,2.3,0.6,2
								C1008.1,449.3,1009.5,449.1,1010.9,448.8z"/>
						</g>
						<path class="st14" d="M949.5,506.4c0.8-0.2,1.6-0.3,2.3-0.5c1.3-0.3,0.8-2.3-0.6-2c-0.8,0.2-1.6,0.3-2.3,0.5
							C947.7,504.7,948.2,506.7,949.5,506.4z"/>
						<path class="st14" d="M955.5,503.3c0.5-0.3,1-0.5,1.6-0.8c1.2-0.6,0.1-2.4-1-1.8c-0.5,0.3-1,0.5-1.6,0.8
							C953.3,502.1,954.3,503.9,955.5,503.3z"/>
						<path class="st14" d="M963.1,499.7c0.9-0.6,1.7-1.2,2.6-1.8c0.5-0.3,0.7-0.9,0.4-1.4c-0.3-0.5-1-0.7-1.4-0.4
							c-0.9,0.6-1.7,1.2-2.6,1.8c-0.5,0.3-0.7,0.9-0.4,1.4C961.9,499.8,962.6,500,963.1,499.7z"/>
						<path class="st14" d="M969.1,493.6c0.4-0.8,0.9-1.6,1.3-2.3c0.7-1.2-1.1-2.2-1.8-1c-0.4,0.8-0.9,1.6-1.3,2.3
							C966.7,493.7,968.5,494.7,969.1,493.6z"/>
						<path class="st14" d="M974.1,486c0.3-0.9,0.5-1.7,0.8-2.6c0.4-1.3-1.6-1.8-2-0.6c-0.3,0.9-0.5,1.7-0.8,2.6
							C971.7,486.7,973.7,487.3,974.1,486z"/>
						<path class="st14" d="M977.2,479.3c0.3-0.6,0.5-1.2,0.8-1.8c0.2-0.5,0.2-1.1-0.4-1.4c-0.4-0.3-1.2-0.1-1.4,0.4
							c-0.3,0.6-0.5,1.2-0.8,1.8c-0.2,0.5-0.2,1.1,0.4,1.4C976.2,479.9,977,479.8,977.2,479.3z"/>
						<path class="st14" d="M981.6,470.7c0.6-0.9,1.2-1.7,1.8-2.6c0.3-0.5,0.1-1.2-0.4-1.4c-0.5-0.3-1.1-0.1-1.4,0.4
							c-0.6,0.9-1.2,1.7-1.8,2.6c-0.3,0.5-0.1,1.2,0.4,1.4C980.7,471.4,981.3,471.2,981.6,470.7z"/>
						<path class="st14" d="M987.7,461.1c0.8-0.7,1.6-1.4,2.3-2.2c0.4-0.3,0.4-0.8,0-1.1c-0.4-0.3-1.1-0.3-1.5,0
							c-0.8,0.7-1.6,1.4-2.3,2.2c-0.4,0.3-0.4,0.8,0,1.1C986.6,461.3,987.3,461.4,987.7,461.1z"/>
					</g>
				</g>
				<linearGradient id="SVGID_9_" gradientUnits="userSpaceOnUse" x1="950.8455" y1="330.5533" x2="941.2148" y2="357.7159">
					<stop  offset="0" style="stop-color:#4755FC"/>
					<stop  offset="1" style="stop-color:#2D43E2"/>
				</linearGradient>
				<path class="st15" d="M934,374.4c7.6,4.8,14.5,10.5,23.2,13.2c8.2,2.5,17.5,2.3,25-2.1c16.4-9.6,14.4-32.5,6.3-46.8
					c-9.9-17.6-29.5-21.1-47.8-23.5c-10.9-1.4-21.8-1.4-31.9,3.3c-8.8,4.1-15.9,12-18,21.6c-1.1,4.9,1.3,8.7,4.7,10.7
					C902.9,364.3,921.4,366.4,934,374.4z"/>
				<g>
					<path class="st14" d="M930.2,338.4c1.8-2.7,3.3-5.5,4.5-8.5c1.9-4.8,2.9-9.9,3.1-15.1c-0.3,0-0.7-0.1-1-0.1
						c-0.1,3.9-0.7,7.8-1.9,11.6c-0.8,2.6-1.8,5.1-3.1,7.5c-1.3,2.5-3.4,7.1-6.6,7.4c-0.7,0-0.7,1.1,0,1
						C927.5,342,928.9,340.3,930.2,338.4z"/>
					<path class="st14" d="M918.7,338.2c-0.5,0.4,0.2,1.2,0.7,0.7c7-6.2,3-16,3-24.2c-0.3,0-0.7,0.1-1,0.1
						C921.6,322.7,925.3,332.3,918.7,338.2z"/>
					<path class="st14" d="M923.4,341c8.4-6.3,9.7-16.7,9.9-26.5c-0.3,0-0.7,0-1-0.1c-0.2,9.4-1.3,19.7-9.4,25.7
						C922.3,340.5,922.8,341.4,923.4,341z"/>
					<path class="st14" d="M929,342.3c11.7-3.6,13.9-15.9,14-26.8c-0.3,0-0.7-0.1-1-0.1c0,10.5-2,22.5-13.2,25.9
						C928.1,341.5,928.4,342.5,929,342.3z"/>
					<path class="st14" d="M920.2,341.5c8.7-6.1,6.6-17.6,7.9-27.1c-0.3,0-0.7,0-1,0c-1.1,9.2,0.9,20.4-7.4,26.2
						C919.1,340.9,919.6,341.8,920.2,341.5z"/>
					<path class="st14" d="M909.7,336.6c2-6,1.7-12.4-0.8-18.2c0,0,0,0-0.1,0c-0.3,0.1-0.6,0.3-0.9,0.4c2.4,5.5,2.7,11.7,0.7,17.4
						C908.4,337,909.5,337.2,909.7,336.6z"/>
					<path class="st14" d="M901,335.5c0.9-3-1.3-6.2-3.2-8.9c-0.2,0.3-0.5,0.5-0.7,0.8c1.6,2.4,3.6,5.4,2.9,7.8
						C899.8,335.8,900.8,336.1,901,335.5z"/>
					<path class="st14" d="M969.1,379.3c0.6-4.5,7-6,10.7-6.8c4.3-0.9,8.7-0.8,13,0.1c0.1-0.3,0.2-0.7,0.3-1
						c-5.1-1.1-10.3-1-15.4,0.3c-3.7,1-9.1,2.7-9.7,7.1C968,379.7,969,379.9,969.1,379.3z"/>
					<path class="st14" d="M989.6,378.8c0.2-0.3,0.4-0.6,0.6-0.9c-7.5-2.5-15.5,0.2-20,6.9c-0.4,0.6,0.5,1.1,0.9,0.5
						c0.3-0.4,0.5-0.7,0.8-1.1c-0.1,0.5,0.5,1,0.9,0.5c3.3-3.6,7.9-2.7,12-1c0.3-0.2,0.6-0.5,0.9-0.7c-4.5-2-9.6-3-13.4,0.7
						C976.6,378.8,983.3,376.9,989.6,378.8z"/>
					<path class="st14" d="M967.4,379.3c5.2-10.3,15.9-16.4,27.2-15.7c0-0.3,0-0.7,0-1c-11.7-0.7-22.8,5.5-28.1,16.2
						C966.2,379.3,967.1,379.9,967.4,379.3z"/>
					<path class="st14" d="M915.3,337.4c3.9-6.8,5-14.6,3.4-22.1c-0.3,0.1-0.7,0.1-1,0.2c1.6,7.3,0.5,14.8-3.3,21.4
						C914.1,337.4,915,338,915.3,337.4z"/>
					<path class="st14" d="M993.4,351.2c-0.1-0.3-0.2-0.7-0.3-1c-9.9,2.4-18.5,8.6-24,17.1c-4.1,3-7.6,6.8-10,11.8
						c-0.3,0.6,0.6,1.1,0.9,0.5c1.9-4,4.5-7.2,7.6-9.8c-0.9,1.6-1.6,3.2-2.3,5c-0.2,0.6,0.8,0.9,1,0.3c0.9-2.5,2.1-4.8,3.5-7
						c7.1-5.1,16.1-7.7,24.6-9.8c0-0.3-0.1-0.7-0.1-1c-7.9,1.9-16.1,4.3-23,8.5C976.8,358.5,984.6,353.3,993.4,351.2z"/>
					<path class="st14" d="M945.9,349.3c7.5-8.8,12.5-19.2,14.8-30.5c-0.3-0.1-0.7-0.2-1-0.3c-2.2,11.1-7.1,21.4-14.5,30
						C944.7,349.1,945.4,349.8,945.9,349.3z"/>
					<path class="st14" d="M951.2,354.7c7.2-10.3,14-21,20.4-31.8c-0.3-0.2-0.6-0.3-0.9-0.5c-6.4,10.8-13.2,21.4-20.4,31.7
						C949.9,354.7,950.8,355.3,951.2,354.7z"/>
					<path class="st14" d="M956.5,359.4c3.2-13,10.6-24.6,20.8-33c-0.3-0.2-0.6-0.4-0.9-0.6c-10.3,8.6-17.7,20.3-21,33.4
						C955.3,359.7,956.3,360,956.5,359.4z"/>
					<path class="st14" d="M965.1,370.4c4.6-12,14-21.7,25.8-26.9c-0.1-0.3-0.3-0.6-0.4-0.9c-12.1,5.3-21.6,15.2-26.4,27.5
						C963.9,370.8,964.9,371.1,965.1,370.4z"/>
					<path class="st14" d="M961.8,362c2.5-12.7,10.2-23.9,21.1-30.8c-0.2-0.3-0.5-0.5-0.7-0.8c-11,7.1-18.8,18.4-21.4,31.3
						C960.7,362.4,961.7,362.6,961.8,362z"/>
					<path class="st14" d="M963.5,365.7c4.7-11.9,13-22.1,23.6-29.2c-0.2-0.3-0.4-0.6-0.6-0.9c-10.8,7.2-19.3,17.6-24.1,29.8
						C962.3,366,963.3,366.3,963.5,365.7z"/>
					<path class="st14" d="M906.7,336c1.1-5.2-2.1-9.5-3.3-14.4c-0.3,0.2-0.6,0.4-0.9,0.7c1.2,4.5,4.2,8.7,3.2,13.5
						C905.5,336.4,906.5,336.7,906.7,336z"/>
					<path class="st14" d="M945.5,352.3c10.4-7.8,17.4-19.3,19.8-32c-0.3-0.1-0.6-0.2-1-0.3c-2.3,12.4-9.2,23.8-19.3,31.4
						C944.4,351.8,945,352.7,945.5,352.3z"/>
					<path class="st14" d="M911.5,336c3.3-6,3.8-12.9,1.7-19.3c-0.3,0.1-0.6,0.2-1,0.3c2.1,6.1,1.5,12.7-1.6,18.4
						C910.3,336.1,911.2,336.6,911.5,336z"/>
					<path class="st14" d="M902.6,333.7c1-3.5-0.7-6.5-2.8-9.1c-0.3,0.2-0.5,0.5-0.7,0.7c1.9,2.3,3.5,5,2.6,8.1
						C901.4,334.1,902.4,334.4,902.6,333.7z"/>
					<path class="st14" d="M933.4,347.8c10.7-6.7,17.4-18.6,18.1-31c-0.3-0.1-0.7-0.1-1-0.2c-0.7,12.2-7.2,23.7-17.6,30.3
						C932.3,347.3,932.8,348.2,933.4,347.8z"/>
					<path class="st14" d="M940.4,347.5c7.6-8.5,12.8-18.8,15.2-29.9c-0.3-0.1-0.7-0.1-1-0.2c-2.3,10.9-7.4,21-14.9,29.4
						C939.3,347.3,940,348,940.4,347.5z"/>
				</g>
				<linearGradient id="SVGID_10_" gradientUnits="userSpaceOnUse" x1="935.8126" y1="339.2837" x2="923.1816" y2="362.507">
					<stop  offset="0" style="stop-color:#4755FC"/>
					<stop  offset="1" style="stop-color:#2D43E2"/>
				</linearGradient>
				<path class="st16" d="M938.6,462.8c3.5,3.5,10.6,4.2,14,0c20.8-25.5,37.7-58.5,22.6-91.1c-7.3-15.7-22-24.4-37.7-29.9
					c-16.5-5.8-34.7-11.8-52.4-10.9c-13.5,0.7-27.5,6-36.6,16c-4.4,0.9-8.4,5-8,9.7c0.1,1.3,0.2,2.5,0.4,3.8c-0.4,2.5,0,5.1,1.4,7.1
					c2.3,9.1,6.4,17.5,12.5,24.9c8.8,10.7,20.5,16.6,33.5,20.7c6,1.9,12.2,3.6,17.4,7.2c4.1,2.8,7.3,6.8,10.3,10.8
					c6.1,8,11.9,16.7,20.2,22.4C935.3,456.7,935.9,460.1,938.6,462.8z"/>
				<g>
					<path class="st14" d="M908.1,383.1c5.8-3.1,12.3-4.3,18.3-6.7c5.2-2.1,9.9-5.2,13.9-9.2c5.3-5.5,9-12.3,10.8-19.6
						c-3.4-1.8-7-3.4-10.7-4.8c-1.2,7.1-4.7,13.7-10.4,18.4c-7.8,6.6-18.8,7.3-27.6,12C895.9,376.7,901.6,386.6,908.1,383.1z"/>
					<path class="st14" d="M859.4,359.2c4.8-6.5,14.4-9.2,21.6-12.2c9.2-3.9,18.4-7.7,27.6-11.6c1.1-0.4,1.9-1.1,2.5-1.9
						c-6.9-1.6-13.8-2.7-20.7-2.8c-6,2.5-11.9,5-17.9,7.5c-8.8,3.7-17,7.3-22.9,15.2C845.1,359.3,855,365,859.4,359.2z"/>
					<path class="st14" d="M942.6,419.7c-7.3-0.8-7.2,10.6,0,11.4c14.7,1.6,28.2-13.1,34.8-24.8c1.4-2.5,2.6-5,3.6-7.6
						c0.1-8.9-1.6-18-5.8-27.1c-0.8-1.6-1.6-3.2-2.5-4.7c2.1,10.9,0.9,22.2-4.3,32.1C963.7,407.8,953.7,420.9,942.6,419.7z"/>
					<path class="st14" d="M939.2,398c7.9-5.9,15.8-11.3,20.8-20c3.3-5.8,5.3-12.2,6.9-18.6c-2.9-3.1-6.2-5.9-9.8-8.2
						c-1.4,6.7-3,13.6-6.2,19.7c-4,7.7-10.6,12.2-17.4,17.3C927.6,392.5,933.3,402.4,939.2,398z"/>
					<path class="st14" d="M881.4,368.4c8.9-6.1,20.7-4.2,30.2-9.1c4.4-2.3,7.6-5.8,10.2-9.9c2.3-3.5,4.2-8.1,7.9-10.3
						c-4.1-1.4-8.2-2.7-12.4-3.8c-0.1,0.1-0.2,0.2-0.2,0.3c-3.2,4.3-5.2,10.1-9.9,13.1c-4.5,2.9-10.3,3.3-15.5,4.2
						c-5.8,1-11.3,2.4-16.2,5.8C869.6,362.6,875.3,372.5,881.4,368.4z"/>
				</g>
				<linearGradient id="SVGID_11_" gradientUnits="userSpaceOnUse" x1="871.9967" y1="443.8419" x2="873.3873" y2="523.97">
					<stop  offset="0" style="stop-color:#4755FC"/>
					<stop  offset="1" style="stop-color:#2D43E2"/>
				</linearGradient>
				<path class="st17" d="M812.4,414.4c2.9,0.9,5.4,2.6,7.2,5c3.7,4.7,7.6,9.1,12,13.2c7.9,7.2,17,11.6,26.4,16.4
					c9.7,5,15.3,12.1,21.4,21c1.1,1.6,2.2,3.3,3.4,4.9c3.8,8.2,7.2,16.5,10.7,24.4c0.5,3.8,3.4,6.9,7.2,8.3
					c23.3,8.9,40.7-18.3,46.4-36.7c3.2-10.4,4.5-21.4,5.4-32.2c1-11.9,1.8-24,0.1-35.9c-1.5-10.3-5.1-21-13.7-27.5
					c-4.9-3.7-10.8-5.2-16.9-4.9c-5.6,0.3-11,2-16.7,1.3c-9.1-1-17.4-5.9-25.6-9.7c-10.2-4.8-20.6-8.6-32.1-8.7
					c-25.3-0.1-47.4,16.4-55.7,39.8c-4.2,4.9-3.8,14.1,4.3,16.4C801.5,411.2,807,412.7,812.4,414.4z"/>
				<g>
					<path class="st14" d="M879.3,470c1.1,1.6,2.2,3.3,3.4,4.9c3.8,8.2,7.2,16.5,10.7,24.4c0.2,1.4,0.7,2.8,1.5,4
						c1.2-0.8,2.4-1.9,3.4-3.2c9.1-11.4,14.2-28.1,12.8-42.6c-0.6-6-2.7-11.1-7.7-14.7c-3.3-2.3-6.7-4.1-9.8-6.7
						c-2.8-2.4-5.4-4.9-8.8-6.3c-16-6.4-30.1,8.7-45.3,8.9c5.8,3.9,12,6.9,18.4,10.2C867.6,454.1,873.3,461.2,879.3,470z"/>
					<path class="st14" d="M857.8,375.9c10.2,2,20-3.7,22.8-13.5c-0.3-0.1-0.6-0.3-0.9-0.4c-10.2-4.8-20.6-8.6-32.1-8.7
						c-4.3,0-8.5,0.5-12.5,1.3c3.9,3.3,6.5,9,9.5,12.8C848,371.8,852.4,374.8,857.8,375.9z"/>
					<path class="st14" d="M924.5,469.2c-5,4.8-7.8,10.7-6.2,17.7c1.4,6.1,5.3,10.8,10.2,14.4c9-8,15.5-20.5,18.6-30.5
						c3.2-10.4,4.5-21.4,5.4-32.2c0.6-7,1.1-14,1.1-21.1c-5.4,0.9-10.2,3.7-13.6,8.2c-4.9,6.5-4.4,14.3-4.2,22
						c0.1,4.4-0.1,9-2.6,12.9C930.9,464.1,927.3,466.5,924.5,469.2z"/>
					<path class="st14" d="M819.6,419.4c2.1,2.7,4.3,5.3,6.6,7.8c0.2-0.5,0.4-1,0.6-1.6c3.2-10.1-3.5-20.8-13.4-23.6
						c-7.8-2.2-15.5,0.5-20.9,5.7c1,0.8,2.2,1.5,3.7,1.9c5.3,1.5,10.8,3.1,16.2,4.8C815.2,415.3,817.8,417.1,819.6,419.4z"/>
					<path class="st14" d="M826.3,396.9c7.8-1.1,20.3-7.2,13.1-16.7c-3.6-4.8-10.2-8.3-15.1-11.6c-2.9-2-6-3.8-9.1-5.4
						c-7.3,4.9-13.6,11.4-18.2,19.1c0.2,0.6,0.5,1.2,0.8,1.7C803.2,394.4,815.2,398.5,826.3,396.9z"/>
					<path class="st14" d="M842.4,417.9c2.9,3.7,7.8,4.8,12.5,3.7c3.8-0.9,7-3.1,10.5-4.8c5.6-2.8,9-1.6,14.6-0.4
						c14.1,3,21.2-12.7,16.5-24.3c-2-5-6-9.3-11.5-10.2c-3.1-0.5-6.2,0.3-9.1,1.4c-4.3,1.6-7.7,2.9-12.4,3.4
						c-6.7,0.7-12.3,2.1-16.5,7.7c-4.1,5.6-5.2,12.5-5.8,19.2c-0.3,0.5-0.4,1.1-0.2,1.8c0,0,0,0.1,0,0.1
						C840.9,416.8,841.5,417.6,842.4,417.9z"/>
					<path class="st14" d="M917.9,433.4c15.1,3.2,18.4-16.9,19-27.3c0.3-4.3,0.4-8.7,1.2-12.9c0.9-4.2,2.7-8.1,3.7-12.2
						c0.2-0.9,0.4-1.7,0.5-2.6c-1-1.1-2.2-2.1-3.4-3.1c-4.9-3.7-10.8-5.2-16.9-4.9c-5.6,0.3-11,2-16.7,1.3c-2.9-0.3-5.6-1-8.4-2
						c-2.2,4.3-3.6,9.1-1.6,13.9c2.6,6.6,9.2,9.5,14.2,13.9c8.4,7.6,1.3,14.4,0.3,23.2C909.2,426.6,911.8,432.1,917.9,433.4z"/>
				</g>
				<g>
					<linearGradient id="SVGID_12_" gradientUnits="userSpaceOnUse" x1="801.3692" y1="377.9536" x2="823.2311" y2="377.9536">
						<stop  offset="0" style="stop-color:#4755FC"/>
						<stop  offset="1" style="stop-color:#2D43E2"/>
					</linearGradient>
					<path class="st18" d="M814.5,384c-1.5-0.7-3.1-1.1-4.6-1.6c-3.8-1.2-6.9-3.7-7.7-7.3c-0.3,0.3-0.5,0.7-0.8,1
						c0.8,2.9,2.9,5.3,6,6.6c3,1.3,6.1,1.8,8.9,3.6c1.6,1,3.5,2,5.2,0.7c3.4-2.6,1.1-8.4-0.9-11.1c-3-3.9-7.5-5.9-12.1-7.4
						c-0.3,0.3-0.6,0.5-0.9,0.8c3.4,1.1,6.7,2.3,9.5,4.6c2.8,2.2,6.9,7.8,4.4,11.5C819.6,388.1,816.3,384.8,814.5,384z"/>
					<linearGradient id="SVGID_13_" gradientUnits="userSpaceOnUse" x1="851.9111" y1="466.1004" x2="896.3036" y2="466.1004">
						<stop  offset="0" style="stop-color:#4755FC"/>
						<stop  offset="1" style="stop-color:#2D43E2"/>
					</linearGradient>
					<path class="st19" d="M889.1,489.5c0.1,0.3,0.3,0.7,0.4,1c3.8-4,5.9-9.4,6.5-15c0.8-7.5,0-16.5-5.5-22.2
						c-2.7-2.8-6.1-5.2-9.2-7.6c-3-2.3-6.1-3.9-9.9-4c-4.1-0.1-8.2,1.2-12.2,2.3c-2.4,0.6-4.8,1.3-7.2,2c0.4,0.2,0.8,0.4,1.2,0.6
						c4.7-1.4,9.5-2.7,14.2-3.5c4.4-0.7,8.2-0.1,11.9,2.4c3,2,5.9,4.5,8.7,6.8c6.1,5.2,7.5,12.7,7.3,20.4
						C895,478.8,893.2,485,889.1,489.5z"/>
					<linearGradient id="SVGID_14_" gradientUnits="userSpaceOnUse" x1="845.5185" y1="361.0497" x2="873.9352" y2="361.0497">
						<stop  offset="0" style="stop-color:#4755FC"/>
						<stop  offset="1" style="stop-color:#2D43E2"/>
					</linearGradient>
					<path class="st20" d="M873.9,359.5c-0.3-0.1-0.7-0.3-1-0.4c-1.4,6.1-7.7,10.1-14,8c-6.2-2.1-9.6-8.1-12.3-13.7
						c-0.4,0-0.8,0-1.1,0c3.2,6.6,7.6,14.3,15.7,15.2C867.3,369.3,872.6,365.2,873.9,359.5z"/>
					<linearGradient id="SVGID_15_" gradientUnits="userSpaceOnUse" x1="794.3157" y1="414.6859" x2="823.2023" y2="414.6859">
						<stop  offset="0" style="stop-color:#4755FC"/>
						<stop  offset="1" style="stop-color:#2D43E2"/>
					</linearGradient>
					<path class="st21" d="M817.2,410.2c3.7,3.4,5.1,7.8,4.9,12.4c0.3,0.4,0.6,0.7,1,1.1c0.5-5.5-1.1-10.9-5.7-14.7
						c-3.7-3.1-8.1-3.6-12.7-3.1c-3.5,0.4-7.5,0.8-10.4,3c0.4,0.2,0.7,0.3,1.1,0.5c2.5-1.5,5.6-1.9,8.4-2.3
						C808.8,406.4,813.5,406.7,817.2,410.2z"/>
					<linearGradient id="SVGID_16_" gradientUnits="userSpaceOnUse" x1="842.9297" y1="464.0019" x2="903.5444" y2="464.0019">
						<stop  offset="0" style="stop-color:#4755FC"/>
						<stop  offset="1" style="stop-color:#2D43E2"/>
					</linearGradient>
					<path class="st22" d="M891.2,494.3c0.2,0.4,0.3,0.8,0.5,1.2c2.7-4.6,5.9-9,8.3-13.8c3.3-6.6,4.4-14.2,2.9-21.4
						c-1.5-7.8-6.1-13.9-12-19c-6-5.1-11.9-10.3-20.2-8.4c-5.4,1.2-10.8,3.1-16.1,4.6c-3.9,1.1-7.8,2.3-11.7,3.4
						c0.4,0.2,0.8,0.5,1.2,0.7c6.7-2,13.4-3.9,20.1-5.9c4.3-1.3,9.2-3.3,13.7-1.9c4,1.2,7.3,4.1,10.5,6.8c6.3,5.2,11.5,11,13.3,19.2
						c1.7,7.7,0.4,15.6-3.2,22.5C896.3,486.5,893.6,490.3,891.2,494.3z"/>
					<linearGradient id="SVGID_17_" gradientUnits="userSpaceOnUse" x1="798.7275" y1="378.929" x2="831.785" y2="378.929">
						<stop  offset="0" style="stop-color:#4755FC"/>
						<stop  offset="1" style="stop-color:#2D43E2"/>
					</linearGradient>
					<path class="st23" d="M826.3,391.1c-5.8,1-13-0.5-18.2-3.3c-3.8-2-7-5.2-8.8-9.1c-0.2,0.3-0.4,0.7-0.7,1c1.9,3.8,5.1,7,8.9,9
						c3.2,1.7,6.7,2.7,10.2,3.2c3.1,0.4,7.2,1,10.3-0.2c5.9-2.3,3.5-10.1,0.9-14c-4-6-10.5-9.4-16.9-12.3c-0.3,0.2-0.6,0.5-0.9,0.7
						c5.2,2.3,10.4,4.8,14.4,9C829.1,378.7,834.9,389.6,826.3,391.1z"/>
					<linearGradient id="SVGID_18_" gradientUnits="userSpaceOnUse" x1="800.0616" y1="413.6918" x2="819.2096" y2="413.6918">
						<stop  offset="0" style="stop-color:#4755FC"/>
						<stop  offset="1" style="stop-color:#2D43E2"/>
					</linearGradient>
					<path class="st24" d="M813.6,411.9c1.9,1.5,3.2,3.4,4,5.4c0.6,0.5,1.1,1,1.6,1.6c-0.9-3.4-2.7-6.4-5.9-8.5
						c-4.1-2.8-9.6-2.6-13.2,0.4c0.4,0.1,0.8,0.2,1.3,0.4C804.9,408.7,810,409,813.6,411.9z"/>
					<linearGradient id="SVGID_19_" gradientUnits="userSpaceOnUse" x1="923.9272" y1="459.2084" x2="953.4705" y2="459.2084">
						<stop  offset="0" style="stop-color:#4755FC"/>
						<stop  offset="1" style="stop-color:#2D43E2"/>
					</linearGradient>
					<path class="st25" d="M933.4,467c2.5-2,4.2-4.6,5.4-7.6c2.9-7.7,1.3-16.1,2.7-24c1.3-7.1,6.1-10.6,11.9-13.1c0-0.4,0-0.8,0-1.2
						c-5.3,2.1-10.1,5-12.1,10.7c-3.1,8.9-0.1,18.8-3.7,27.6c-1.9,4.6-5.3,6.8-9,9.8c-2.6,2.2-4.1,4.9-4.6,8.3
						c-1,7.7,3.6,14.2,8.4,19.8c0.2-0.3,0.5-0.5,0.7-0.8c-4.9-5.9-10.1-13.1-7.6-21.1C926.9,471.4,930.3,469.5,933.4,467z"/>
					<linearGradient id="SVGID_20_" gradientUnits="userSpaceOnUse" x1="901.6546" y1="394.7616" x2="930.6662" y2="394.7616">
						<stop  offset="0" style="stop-color:#4755FC"/>
						<stop  offset="1" style="stop-color:#2D43E2"/>
					</linearGradient>
					<path class="st26" d="M902.5,371.3c-1.3,4.8-1.5,10,2.9,13.4c3,2.3,7,2.8,9.8,5.2c3.1,2.7,4.3,7,4.6,11
						c0.3,4.6-0.5,9.2-0.1,13.8c0.1,2,0.9,4.7,3.5,3.6c2.5-1.1,3.1-5.6,3.7-7.8c1.2-4.3,2.2-8.8,2.8-13.2c1.2-8.7,1.3-17.4,0.3-26.1
						c-0.4-0.1-0.7-0.2-1.1-0.3c1.1,9.3,1,18.7-0.5,28c-0.7,4.5-1.7,8.9-3,13.2c-0.3,1.1-0.6,3-1.4,4c-2.5,1.3-3.6,0.9-3.3-1.3
						c0-0.7-0.1-1.3-0.1-2c0-2.4,0.1-4.7,0.2-7c0.2-6.6-0.6-14.2-6.8-17.8c-3.6-2.1-8.4-2.7-10.4-6.8c-1.5-3-1.1-6.3-0.2-9.5
						C903.1,371.4,902.8,371.4,902.5,371.3z"/>
					<linearGradient id="SVGID_21_" gradientUnits="userSpaceOnUse" x1="932.2322" y1="460.1441" x2="953.2169" y2="460.1441">
						<stop  offset="0" style="stop-color:#4755FC"/>
						<stop  offset="1" style="stop-color:#2D43E2"/>
					</linearGradient>
					<path class="st27" d="M945.8,441.5c1-4.7,3.5-9.9,7.3-12.7c0-0.4,0-0.8,0.1-1.2c-2.6,1.6-4.7,4-6.1,6.8
						c-3.6,7.1-2.9,15.4-4.4,23c-0.8,4.3-2.5,8-4.9,11.6c-2,3.1-4.2,6.2-5.2,9.8c-0.9,3.4-0.2,6.5,1.5,9.5c0.8,1.5,1.5,2.9,2,4.4
						c0.3-0.4,0.5-0.8,0.8-1.2c-1-2.3-2.6-4.3-3.3-6.8c-2.3-8,5.6-14.5,8.4-21.2C944.9,456.6,944.3,448.8,945.8,441.5z"/>
					<linearGradient id="SVGID_22_" gradientUnits="userSpaceOnUse" x1="838.8839" y1="363.8969" x2="877.4192" y2="363.8969">
						<stop  offset="0" style="stop-color:#4755FC"/>
						<stop  offset="1" style="stop-color:#2D43E2"/>
					</linearGradient>
					<path class="st28" d="M859.6,373.9c8.9,0.8,14.3-5.7,17.8-12.8c-0.3-0.1-0.6-0.3-1-0.4c-3.7,7.3-9.2,13.9-18.4,12
						c-4.9-1-8.2-4.7-11-8.6c-2.4-3.3-4.7-6.7-7-10.1c-0.4,0.1-0.8,0.1-1.2,0.2c2.9,4.3,5.8,8.8,9.1,12.9
						C851,370.6,854.7,373.4,859.6,373.9z"/>
					<linearGradient id="SVGID_23_" gradientUnits="userSpaceOnUse" x1="851.9579" y1="402.5629" x2="884.2455" y2="402.5629">
						<stop  offset="0" style="stop-color:#4755FC"/>
						<stop  offset="1" style="stop-color:#2D43E2"/>
					</linearGradient>
					<path class="st29" d="M856.5,410.4c2-0.7,3.5-2.2,5.3-3.2c2.5-1.3,5.3-1.2,8-0.7c4.6,0.8,16.2,3.7,14.2-5.2
						c-0.7-2.9-2-6.2-5.2-6.8c-4-0.8-9-0.3-13,0.4c-6.1,1.2-12.3,5.3-13.1,11.7c-0.2,0-0.4,0.1-0.5,0.4c-0.3,1-0.6,2.8,0.4,3.6
						C853.5,411.4,855.6,410.7,856.5,410.4z M853.2,409.2c0.2,0,0.5-0.2,0.4-0.5c-0.3-6.3,5-10.8,10.7-12.3c3.2-0.9,6.6-1,9.9-1
						c1.6,0,3.1,0,4.7,0.3c2.3,0.5,3.1,2.7,3.8,4.7c3.1,9.3-9.4,5.4-14,4.8c-2.2-0.3-4.5-0.2-6.6,0.7
						C860.8,406.5,854.3,411.1,853.2,409.2z"/>
					<linearGradient id="SVGID_24_" gradientUnits="userSpaceOnUse" x1="897.2748" y1="399.9574" x2="936.2186" y2="399.9574">
						<stop  offset="0" style="stop-color:#4755FC"/>
						<stop  offset="1" style="stop-color:#2D43E2"/>
					</linearGradient>
					<path class="st30" d="M898.8,370.4c-1.1,3-1.8,6.2-1.3,9.4c0.6,3.7,3,6.7,5.9,8.9c3.5,2.6,7.8,4,10.9,7.1
						c4.2,4,3.7,10.2,3,15.5c-0.3,2.6-0.9,5.2-1.6,7.8c-0.5,2-1.3,4.2-0.9,6.3c0.5,2.8,2.8,4.5,5.7,4c3.8-0.6,5.5-4.3,6.7-7.6
						c1.9-5.3,3.7-10.6,5.1-16.1c2.7-10.5,4-21.3,4-32.2c-0.3-0.2-0.7-0.4-1-0.6c0.1,8.3-0.6,16.6-2.2,24.7c-0.9,4.7-2.1,9.4-3.6,14
						c-1.3,4.3-2.5,9.3-4.8,13.1c-1.2,2.1-3.6,4.2-6.2,3.5c-3.7-1-2.7-5.5-2-8.1c1.1-4,1.9-8,2.2-12.2c0.3-3.5,0.2-7.3-1.6-10.4
						c-1.5-2.7-4.1-4.4-6.7-5.9c-3.8-2.2-7.9-4.2-10.4-8c-2.6-4.1-1.8-8.8-0.2-13.1C899.5,370.6,899.1,370.5,898.8,370.4z"/>
					<linearGradient id="SVGID_25_" gradientUnits="userSpaceOnUse" x1="845.7614" y1="401.5525" x2="893.4118" y2="401.5525">
						<stop  offset="0" style="stop-color:#4755FC"/>
						<stop  offset="1" style="stop-color:#2D43E2"/>
					</linearGradient>
					<path class="st31" d="M856.4,416c4.8-1.1,7.8-5.5,13-5.6c7.1-0.1,17.8,5.7,22.5-2.7c3.4-6.2,1.1-16.6-5.4-19.9
						c-3.5-1.8-6.5-0.8-9.9,0.7c-2.8,1.3-5.3,1.6-8.3,1.4c-2.3-0.1-4.6-0.2-6.8,0.5c-9.9,2.8-13.3,13.7-15.6,22.5
						c-0.1,0.4,0.2,0.7,0.6,0.6C849.2,415.8,852.8,416.8,856.4,416z M858.3,393c3.8-2.3,7.6-1.9,11.9-1.9c3.5,0,5.9-1.4,9.1-2.6
						c9.7-3.7,14.8,9.2,12.5,16.8c-2.9,9.5-13.7,4.8-20.5,4.2c-4.2-0.4-7.1,1.1-10.5,3.3c-4.4,2.9-9.4,3.5-13.7,0.1
						c0,0-0.1-0.1-0.1-0.1C848.9,405.3,851.3,397.2,858.3,393z"/>
				</g>
			</g>
			<g>
				<path class="st32" d="M834.5,1664.5c0.8-0.4,1.5-0.8,2.3-1.2c4.6-1.6,9.2-4.4,13.6-6.2c9-3.6,18.2-6.5,27.6-8.7
					c24.4-4,49.2-4.8,73.6-9.7c22-4.4,42.9-13.4,61.9-25.2c19.3-12,36.5-27.4,51.1-45.1c-6.9-14.6-21-44.6-36.1-78.3
					c-1.5,3-3,6-4.6,8.9c-2.3,4.1-4.8,8.1-7.2,12.1c-0.2,0.2-0.3,0.5-0.5,0.7c-1.4,1.9-2.9,3.9-4.4,5.8
					c-5.8,7.3-12.1,14.2-18.9,20.5c-0.4,0.3-0.7,0.7-1.1,1c-1.5,1.2-2.9,2.4-4.4,3.6c-3.8,2.9-7.7,5.7-11.8,8.3
					c-4,2.6-8.1,4.9-12.3,7.2c-2.2,1-4.3,1.9-6.5,2.8c-7.8,3.1-15.7,5.5-23.9,7.4c-25.9,4.3-52.2,5-78,10.6
					c-24.4,5.3-47.3,16.7-68.9,28.9c-15.1,8.5-29.6,18-44.4,27c-16.6,50-38.4,83.5-52.5,101.5c29.2-6.2,57.1-19.4,82.9-34.6
					c18.9-11.2,37.2-23.5,56.4-34.2C830.5,1666.6,832.5,1665.6,834.5,1664.5z"/>
				<path class="st32" d="M868.3,1557.4c19.5-0.5,38.7,0.1,57.9-4c14.3-3.1,28-8.9,40.3-16.9c23.2-15.1,42.7-38.6,54.1-64
					c-4.6-10.4-9.3-21-13.7-31.5c-8.6,27.9-22.7,53.3-47.5,71.8c-11.1,8.3-23.5,14.1-36.9,17.4c-16.5,4.1-33.7,3.4-50.5,3.6
					c-18,0.2-35.7,2.3-52.8,8.1c-15.9,5.4-30.9,13.3-45.1,22.2c-5.9,3.8-11.7,7.7-17.4,11.8c-2.3,12.4-4.9,24.2-7.9,35.3
					c8.4-6.5,16.9-13,25.6-19.1c13.3-9.3,27.3-18,42.4-24.2C833.5,1561,850.3,1557.9,868.3,1557.4z"/>
			</g>
			<path class="st33" d="M742.8,994.4c-11.8,8.3-25.9,15-40.5,16.6c-0.1,3.7-0.2,7.4-0.2,11.3c8.1-0.7,16.1-2.6,23.7-5.7
				c29.9-12,52.3-35.8,68.8-63.2c24,8.5,48.5,16.4,73.6,18.9c-3.7,12.9-8.3,25.6-14,37.7c-13.8,29.6-34.5,56.2-61.9,73.3
				c-19.7-7.4-39.7-14.4-60.7-16.6c-9.1-0.9-19.2-1.3-28.3,0.9c0.2,3.8,0.4,7.7,0.7,11.6c7.3-2.2,15.5-2,22.9-1.5
				c18.3,1.1,35.6,6.3,52.6,12.6c-5.5,2.6-11.3,4.9-17.3,6.8c-18.1,5.6-38.1,7.3-56.6,2.5c0.4,4,0.8,8.2,1.2,12.4
				c9.6,1.8,19.6,2,26,1.8c21.4-0.8,42.4-7.5,60.9-18.1c18.3,7,36.6,14,55.8,17.2c9.3,1.5,18.7,1.9,27.9,1.2
				c-0.8,2.5-1.7,4.9-2.5,7.4c-9.9,29.1-20.4,59.4-37.3,85.4c-20.5-3.1-40.7-8.6-60.4-15c-13.7-4.4-27.2-9.3-40.8-14.3
				c-7.4-2.7-14.7-5.5-22.2-7.8c0.6,4.1,1.3,8.3,2,12.6c10.8,3.6,21.3,7.7,32,11.5c24.6,8.8,49.5,16.9,75.2,21.9
				c2.3,0.5,4.7,0.9,7,1.3c-4.6,6.1-9.6,11.8-15.2,17.2c-22.6,21.8-52.9,32.8-83.4,31.5c0.8,3.8,1.6,7.7,2.5,11.6
				c18.7,0.2,37.4-3.5,53.7-10.7c23.1-10.3,40.9-27.5,55.1-47.7c28.8,3.5,58.6,2.4,86.2-6.2c-1,9.1-1.9,18.1-3,27.2
				c-4.3,37.2-10.5,75.7-28.5,109c-19.5-1.4-39-3.8-58.2-7.2c-27.4-4.8-54.4-11.8-80.9-20.3c-5.1-1.6-10.3-3.3-15.5-4.8
				c0.6,2.5,1.2,5,1.8,7.6c0.4,1.7,0.8,3.5,1.2,5.2c6.8,2.1,13.4,4.4,20.1,6.4c24.9,7.7,50.4,13.6,76.1,17.9
				c16.2,2.7,32.5,4.8,49,6.2c-0.7,1-1.3,2.1-2,3.1c-23,33.7-59.5,57.7-99.1,67.2c-8.7,2.1-17.9,3.5-27.3,4.1
				c0.3,3.8,0.6,7.6,0.8,11.3c8.6-0.5,17-1.7,25-3.4c43.3-9.1,83-34.8,108.7-70.9c2.4-3.4,4.7-6.9,6.8-10.4
				c16.5,1.1,33,1.5,49.5,1.1c-17.5,35-34,70.7-63.8,96.7c-9.7,8.5-20.4,15.6-31.6,21.8c-1.2,0.1-2.5,0.2-3.7,0.3
				c-27.7,2.4-55.5,2.3-83.2,1.5c-2.2-0.1-4.3-0.2-6.5-0.3c0,3.9,0,7.7-0.1,11.5c21.5,0.7,43.5,0.9,65.3,0
				c-19.2,7.5-39.2,13-59,17.7c-2.3,0.6-4.7,1.1-7.1,1.7c-0.2,4-0.5,8-0.8,11.9c0.9-0.2,1.8-0.4,2.7-0.6c11.7-2.7,23.4-5.6,34.9-8.9
				c21-6,41.7-13.7,60.8-24c52-5.3,102.4-19.2,144.9-50.8c-1.5-3.6-3.1-7.2-4.6-10.8c-2.6,2-5.2,3.9-7.9,5.7
				c-32.9,22.8-70.7,35.4-109.8,41.8c12.6-9,24.2-19.6,34.1-32.2c20.1-25.4,33.6-54.8,48.3-83.4c3-0.2,6-0.3,9-0.5
				c-2.7-8.8-4.3-15.7-4.4-20.1c-0.1-3.2-0.2-7.3-0.2-12c-4.1,7-8,14.2-11.8,21.5c-12,0.3-24,0.2-35.9-0.1
				c-4.4-0.1-8.8-0.3-13.3-0.5c17.3-34.3,23.2-73.5,27.6-111.4c1.1-9.8,2.1-19.8,3.2-29.8c6.3-2.5,12.4-5.5,18.4-9
				c2.5-1.5,5-3,7.4-4.7c-0.3-4.5-0.6-9-0.9-13.5c-7.2,5.5-15.1,10.1-23.3,13.9c3.3-27.1,7.8-54.1,17.3-79.5
				c-0.9-7.6-1.8-15.1-2.9-22.7c-3.1,6.4-5.6,12.9-7.8,18.8c-10.6,28.3-15.2,58.2-18.7,88.2c-22.9,8-48.2,10.5-72.4,9
				c-2.8-0.2-5.5-0.4-8.3-0.7c8.9-14.6,16.2-30.3,22.4-45.9c6.5-16.3,12-33.3,17.7-50.1c24.7-4.7,47.4-17.4,64.4-37.2
				c-0.8-5.1-1.6-10.2-2.5-15.2c-6.8,9.6-15.2,18-24.7,24.7c-10,7.1-21.1,12.3-32.8,15.4c9.5-26.7,20.5-52.8,38-75.3
				c2.5-3.2,5.8-7.2,9.7-10.5l-2.7-11.9c-0.5,0.3-0.9,0.6-1.4,0.9c-9,6.3-15.6,15.3-21.7,24.3c-6.5,9.6-12,19.7-16.9,30.2
				c-6.8,14.5-12.5,29.6-17.8,44.7c-5,0.6-10,0.8-15.1,0.6c-21-0.8-41.2-7.7-60.8-15c36.9-25.9,59.6-66.7,72.6-109.4
				c0.6-1.9,1.1-3.9,1.7-5.8c8.8,0.3,17.7-0.2,26.7-1.7c8-1.3,15.9-3.4,23.4-6.6c-1-3.8-2.1-7.5-3.1-11.1c-1.6,0.7-3.2,1.4-4.8,1.9
				c-13,4.6-26.2,6.5-39.4,6.3c3.9-17,6.5-34.2,10.6-51.2c2.5-10.3,6.1-22.2,12.9-31c-1.1-4.8-2-9.3-2.7-13.5
				c-6.4,5.7-11.4,13.4-14.9,21.6c-7.7,18.1-9.5,37.8-13.5,56.9c-1.2,5.6-2.5,11.2-3.9,16.7c-23.9-2.1-47.8-9.8-70.9-18.1
				c6.1-11.3,11.3-23,15.6-34.6c10.9-29,17.5-59.3,24.4-89.5c6.2-0.1,12.5-0.2,18.7-0.6c17.5-1.1,35.5-4.2,52.2-10.1
				c1.2-4.3,2.4-8.8,3.7-13.3c-22.7,10.1-47.2,12.6-72.1,12.9c4-17.3,8.3-34.5,13.7-51.4c7.2-22.6,15.9-47.3,32.8-64.7
				c2.7-2.8,5.6-5.3,8.8-7.5c-4.5-1.4-9.1-2.6-13.8-3.6c-17,16.2-28.1,41.9-35.2,61.9c-7.5,21.3-12.9,43.3-17.9,65.3
				c-14.3-0.1-28.7-0.7-42.9-0.8c8.3-12.3,14.1-26.2,17.6-40.7c2.9-12,4.3-24.4,4.6-36.8c11.6-6.2,21.8-14.5,29-26.4
				c4.3-7.1,7.1-15.8,6.8-24.2c-3.8,0.4-7.6,0.9-11.4,1.3c0,3.8-0.8,7.6-1.9,10.4c-4.3,11.1-12.7,19.5-22.7,25.8
				c-0.5-9.4-1.6-18.9-1.2-28.3c0.1-2.7,0.4-5.5,1.1-8.1c-3.7-0.7-7.3-1.9-10.8-3.7c-3.2,11.4-1.1,24.5-0.5,36.2
				c0.2,3.3,0.3,6.6,0.3,9.9c-6.1,2.8-12.3,5-18.4,6.7c-8,2.3-16.2,4.1-24.3,5.8c1.6,3.6,3.3,7.1,5,10.6
				c12.4-2.8,25.3-5.9,37.4-10.7c-0.6,10.5-2,20.9-4.7,31c-3.4,13-9.2,25.9-17.2,37.1c-0.9,7.6-3.5,16-7,24.8
				c0.5-0.5,1.1-0.9,1.6-1.4c2.8-2.5,5.4-5.1,7.8-7.9c1.1,0,2.2,0,3.3-0.1c15.3-0.2,30.7,0.3,46,0.5c-5,22.1-9.9,44.3-16.7,65.9
				c-5.7,18.3-12.9,37-22.3,54.3c-7.1-2.6-14.1-5.1-21-7.5c-16.2-5.6-33-11.3-50.2-13.6c-1.3,3-2.7,6.6-4.1,10.8
				c17.6,1.9,35,8.1,51.3,13.7c6,2.1,12.1,4.3,18.2,6.5C773,967,759.6,982.6,742.8,994.4z"/>
			<g>
				<path class="st32" d="M745.2,1051.2c-13.1,8.9-28.3,12-42.4,8.6c0.1,1.2,0.1,2.4,0.2,3.6c4.5,1.1,9.2,1.5,14.1,1.2
					c21.5-1.3,39.7-15.8,51.7-32.8c6.9-9.8,12.4-20.5,17.3-31.6c30.3,10.7,63.2,14,94.3,6.9c-10.8,29.4-21.7,58.7-39.6,84.6
					c-9.1,13.1-20.1,25.4-33.2,34.7c-5.6-1.2-11.3-2.5-16.8-4.1c-24.8-7.1-47.3-18.5-69.3-31.7c-5.1-3.1-11.1-6.3-17.2-7.2
					c0.1,1.1,0.2,2.1,0.2,3.2c0.1,0,0.2,0,0.3,0c11.9,2.3,22.4,11.5,32.9,17.1c20.8,11.3,43.3,20,66.4,25.1c-3.9,2.6-8,4.9-12.2,6.9
					c-18.2,8.6-39.6,11.8-59.4,7.7c-7.7-1.6-15.9-4.6-23.1-9c0.2,1.3,0.3,2.5,0.5,3.8c1.2,0.7,2.3,1.3,3.5,1.9
					c30.4,15.1,67.5,8.2,94.8-10.5c22.2,4.4,45,5.5,67.7,2.5c7.4-1,14.8-2.4,22-4.3c-12.2,30.3-22.1,61.6-36.6,91
					c-7.7,15.4-16.9,30.5-27.9,43.8c-28-5.2-55.1-15.5-79.9-29.5c-9.4-5.3-20.1-11.9-31.2-15.8c0.2,1.2,0.5,2.5,0.7,3.8
					c5.3,2,10.5,4.6,15.4,7.2c10.4,5.5,20.5,11.7,31.2,16.8c19.5,9.3,40.2,16.2,61.5,20.3c-16.5,19.1-37.1,34-62.7,40.1
					c-8.6,2-17.8,2.9-27.1,2.6c0.3,1.1,0.5,2.3,0.8,3.4c0.6,0,1.2,0,1.7,0c36.7,0.1,67.9-18.5,91-45.4c24.7,4.3,50,4.7,74.8,0.3
					c11-2,21.8-4.9,32.3-8.8c-1.6,5.9-3.1,11.9-4.6,17.8c-12.2,48.1-23.6,97.8-50.7,140c-1.6,2.5-3.3,5-5,7.4
					c-22.5,0.2-45-2.9-66.6-9.7c-15.6-4.9-36.7-16.7-57.2-22.7c0.2,1.1,0.3,2.2,0.5,3.3c2.4,0.8,4.8,1.6,7.1,2.5
					c11.3,4.3,22,9.8,33.2,14.4c9.5,3.9,19.3,7,29.3,9.4c16.8,4,34.1,6,51.4,6c-25,33.6-62.6,60.2-105.5,61.5c-3,0.1-6,0-9-0.2
					c0,1.1,0,2.1,0,3.2c36.8,2.2,73-16.2,98.9-41.7c7.2-7.1,13.7-14.8,19.6-22.9c21.8-0.3,43.5-3.8,64.3-10.1
					c1.2-0.3,2.3-0.7,3.5-1.1c-26.1,43.1-52.2,86.3-90.1,118.7c-26-3-51.9-11.2-75.9-20c-6.7-2.4-13.6-5.2-20.7-7.5
					c0,1.1-0.1,2.2-0.1,3.2c0,0,0,0,0,0c12.1,4.1,23.9,8.9,36,12.9c18.5,6.2,38,11.5,57.5,14c-9.6,7.9-19.9,15.1-31.2,21.5
					c-19.5,11-41.2,18.6-63.7,20.1c-2.2,0.1-4.4,0.3-6.6,0.3c-0.2,1.1-0.4,2.1-0.6,3.1c14.6-0.2,29.3-2.9,43.1-7.6
					c23.3-7.9,44.5-21,63.3-36.9c26.9,2.9,53.9,0.3,78.8-12.4c30.3-15.5,52.2-42.4,71.9-69.6c-0.5-1.1-1-2.2-1.4-3.3
					c-20.5,28.4-43.3,56.8-75.7,72c-22.5,10.6-46.5,12.9-70.5,10.6c13.4-11.8,25.7-25,36.6-38.7c20.4-25.7,37-53.9,53.9-82
					c11.4-3.9,22.8-8.7,33.8-14.5c-0.4-1-0.8-2-1.2-3c-9.7,5.2-19.8,9.6-30.1,13.3c7.1-11.9,14.4-23.7,21.9-35.2
					c-0.4-1.3-0.9-2.5-1.3-3.7c-8.8,13.2-17.1,26.9-25.4,40.6c-4.6,1.6-9.3,3-14,4.2c-17.6,4.7-35.8,7.4-54,7.9
					c20.3-29.4,32.7-64.2,42.2-98.3c6.3-22.6,11.6-45.5,17.7-68.3c8.2-3.2,16.3-7,24-11.3c0-1.2-0.1-2.3-0.1-3.5
					c-7.3,4.2-15,7.9-22.8,11c5.6-20.6,11.9-41,20.3-60.7c-0.1-2.3-0.3-4.5-0.4-6.8c-2.4,5.4-4.7,10.8-6.8,16.3
					c-6.6,17.2-11.9,34.8-16.7,52.6c-13.8,5.2-28.2,8.9-42.8,10.8c-21.1,2.8-42.3,2.1-63-1.4c2-2.4,3.9-4.8,5.7-7.3
					c27.3-37.3,40.3-82.3,57.2-124.7c0.6-1.5,1.2-2.9,1.8-4.4c13.8-3.8,27.2-9.2,39.7-16.2c5.8-3.2,11.4-6.8,16.7-10.7
					c-0.2-1.2-0.3-2.3-0.5-3.5c-7.3,5.4-15,10.2-23.1,14.4c-10,5.1-20.5,9.3-31.3,12.4c8.2-19.7,17.6-38.9,29.9-56.3
					c4.5-6.3,9.9-14.2,16.5-19.9c-0.1-0.7-0.3-1.4-0.4-2.2l-0.2-1.1c-5.5,4.5-10,10.3-14.2,15.7c-7.1,9.2-13.3,19.1-18.9,29.4
					c-6.2,11.5-11.6,23.4-16.5,35.4c-11.4,3.1-23.1,5-34.8,5.9c-17.7,1.3-35.5,0.2-52.9-3c2-1.5,3.9-3,5.8-4.6
					c34.4-29.4,50.9-73.4,66-114.7c0.2-0.6,0.4-1.2,0.6-1.7c8.7-2.2,17.2-5.2,25.4-9.1c8.8-4.2,17.3-9.3,25-15.3l-0.2-1.1
					c-0.2-0.8-0.4-1.5-0.6-2.2c-9.2,7.2-19.3,13.2-30,17.8c-6,2.6-12.1,4.7-18.3,6.4c7.9-21.6,16.1-43.2,27.2-63.3
					c2.1-3.8,4.4-7.8,6.7-11.6c-0.4-1.3-0.8-2.6-1.1-3.9c-1.5,2.3-2.9,4.7-4.3,7c-6.3,10.4-11.6,21.3-16.4,32.4
					c-5.7,13.2-10.7,26.8-15.7,40.3c-31.1,7.5-64,4.2-94.3-6.4c4.9-11.3,9.3-22.9,14-34.1c21.9-52.2,43.8-104.4,65.7-156.7
					c3.1-7.3,6.1-14.6,9.2-21.9c25.4-16.6,47.3-38.6,56.7-67.9c1-3.3,2.4-7.4,3.2-11.7c-0.9-0.9-1.9-1.7-2.8-2.5
					c-0.5,3.2-1.4,6.3-2.1,8.9c-7.6,29.2-28.3,51.2-52.7,67.9c7.2-17.1,14.3-34.1,21.5-51.2c2.7-6.4,5.3-12.7,8-19.1
					c2.5-6,4.9-11.6,9.7-16.2c0.1-0.1,0.2-0.2,0.3-0.3c-1-0.5-2-1-3-1.5c-6.4,6.5-9.3,15.5-12.8,23.8c-5.5,13.1-10.9,26.1-16.4,39.2
					c-4,9.5-7.9,18.9-11.9,28.4c-12.3,7.9-25.3,14.6-38.1,20.3c-8.3,3.7-16.8,7.2-25.2,10.6c2.2-4.9,4.2-10,5.9-15
					c7.9-23.3,10.7-47.9,13-72.2c1.3-13.6,2.3-27.2,4-40.8c0.2-1.5,0.4-3,0.6-4.5c-1.1,0.1-2.1,0.2-3.2,0.3
					c-3,22.9-4.1,45.9-7.1,68.8c-2.8,21.5-7.9,44.6-17.4,65.1c-12.6,5.1-25.2,10.2-37.5,15.9c-0.6,1.4-1.2,2.8-1.9,4.2
					c1.5-0.7,2.9-1.3,4.3-2c10.9-5,22-9.6,33.1-14.1c-9.8,19.6-23.8,36.5-43.9,47c-3.6,1.9-8,3.8-12.4,3.9c-0.6,1-1.3,2.1-1.9,3.1
					c5.4,0.4,11.3-1.9,15.8-4.3c8.9-4.6,16.9-10.9,23.9-18.1c9.4-9.7,16.9-21.2,22.7-33.4c11.4-4.6,22.7-9.2,33.8-14.3
					c9.8-4.5,19.7-9.7,29.2-15.6c-17.2,41.1-34.4,82.1-51.6,123.2c-10.9,26-21.8,52.1-32.7,78.1c-1,2.4-2,4.8-3.1,7.3
					c-8.4-3.1-16.5-6.7-24.3-10.8c-17.2-9-33.3-22.7-52.3-28c-0.2,1-0.4,2.1-0.5,3.1c0.8,0.2,1.6,0.5,2.4,0.7
					c12.2,4.1,23,11.5,33.9,18.2c10.4,6.5,21.3,12.2,32.6,16.9c2.3,1,4.6,1.9,7,2.7C774.1,1018.9,763.5,1038.7,745.2,1051.2z"/>
				<path class="st32" d="M827.2,681.4c-2.9,0.2-5.8,0.2-8.6,0.1c-0.1,0.1-0.3,0.1-0.4,0.2c-23.3,9.9-46.6,19.8-69.9,29.7
					c0.2,1,0.4,2,0.6,3.1c24.2-10.3,48.5-20.6,72.7-30.9C823.2,682.9,825.1,682.2,827.2,681.4z"/>
			</g>
			<g>
				<path class="st32" d="M851,699.1c16.7-1,32.6-0.4,48.7,4.5c13.9,4.2,26.9,11.1,38.1,20.2c1.8-4.9,3.4-8.6,4.5-10.6
					c0.1-0.2,0.2-0.4,0.3-0.7c-7.5-10.2-19.1-17.4-30.5-22.6c-16.5-7.4-34.4-11.4-52.5-11.4c-20.4,0-42.5,8.3-61.6-2.3
					c-9.3-5.2-17.7-12.1-27-16.7c-1.3,5.4-3.8,10.1-6.8,14.5c5,2.1,9.4,5.3,13.8,8.6c6.4,4.7,12.7,9.2,20.2,12.2
					C815.1,701.5,833.4,700.1,851,699.1z"/>
				<g>
					<path class="st14" d="M793.8,673.6c-1.2,5.6-2.6,11.1-4.3,16.6c0.3,0.2,0.6,0.4,0.9,0.6c1.7-5.4,3.2-11,4.4-16.6
						C794.4,674,794.1,673.8,793.8,673.6z"/>
					<path class="st14" d="M789.1,670.5c-1.7,5.3-3.5,10.6-5.5,15.8c0.3,0.2,0.6,0.4,0.9,0.6c2-5.2,3.8-10.5,5.5-15.8
						C789.7,670.9,789.4,670.7,789.1,670.5z"/>
					<path class="st14" d="M817.5,681.4c-0.3,0-0.7,0-1-0.1c0.4,6.1,1.1,12.1,2.1,18.1c0.4,0,0.7,0.1,1.1,0.1
						C818.6,693.5,817.8,687.5,817.5,681.4z"/>
					<path class="st14" d="M859.7,678.5c-0.4,0-0.7,0-1.1,0c1.7,6.7,2.9,13.4,3.8,20.2c0.3,0,0.7,0,1,0
						C862.6,691.9,861.3,685.1,859.7,678.5z"/>
					<path class="st14" d="M846.8,679.3c-0.3,0-0.7,0.1-1,0.1c0.9,6.6,1.8,13.2,2.7,19.8c0.3,0,0.7,0,1-0.1
						C848.6,692.6,847.7,685.9,846.8,679.3z"/>
					<path class="st14" d="M828.1,681.3c-0.3,0-0.7,0-1,0.1c1.2,6.2,2.6,12.4,4.2,18.6c0.4,0,0.7,0,1.1,0
						C830.7,693.8,829.3,687.6,828.1,681.3z"/>
					<path class="st14" d="M780.1,664.6c-1.7,5.1-3.8,10-6.2,14.8c0.3,0.2,0.6,0.4,0.9,0.6c2.4-4.8,4.5-9.8,6.2-14.9
						C780.7,665,780.4,664.8,780.1,664.6z"/>
					<path class="st14" d="M840.9,680c-0.3,0-0.7,0.1-1,0.1c0.5,6.5,1.1,13,2,19.5c0.3,0,0.7,0,1-0.1
						C842,693.1,841.3,686.5,840.9,680z"/>
					<path class="st14" d="M812.6,680.9c-0.1,5.9,0,11.8,0.2,17.7c0.3,0.1,0.7,0.1,1,0.2c-0.2-5.9-0.2-11.8-0.2-17.7
						C813.2,681,812.9,681,812.6,680.9z"/>
					<path class="st14" d="M807.7,680c-0.5,5.8-0.8,11.7-0.8,17.5c0.3,0.1,0.7,0.2,1,0.3c0-5.8,0.2-11.7,0.7-17.5
						C808.4,680.1,808,680,807.7,680z"/>
					<path class="st14" d="M836.2,680.5c-0.3,0-0.7,0.1-1,0.1c0.6,6.4,1.2,12.8,1.7,19.2c0.3,0,0.7,0,1,0
						C837.3,693.4,836.7,687,836.2,680.5z"/>
					<path class="st14" d="M784.8,667.7c-0.3-0.2-0.6-0.4-0.9-0.6c-2.1,5-4.2,9.9-6.5,14.8c0.2,0.2,0.5,0.4,0.7,0.5
						c0,0,0.1,0.1,0.1,0.1C780.6,677.7,782.8,672.7,784.8,667.7z"/>
					<path class="st14" d="M777.5,663c-2.1,4.9-4.3,9.7-6.6,14.4c0.3,0.2,0.6,0.4,0.9,0.6c2.3-4.8,4.5-9.6,6.6-14.4
						C778.1,663.3,777.8,663.2,777.5,663z"/>
					<path class="st14" d="M773.4,660.6c-1.2,5.2-3.1,10.2-5.9,14.8c0.3,0.2,0.6,0.3,0.9,0.5c2.8-4.6,4.8-9.5,6-14.8
						C774,661,773.7,660.8,773.4,660.6z"/>
					<path class="st14" d="M803.9,678.8c-0.4,5.8-1,11.5-1.8,17.3c0.3,0.1,0.7,0.2,1,0.3c0.8-5.7,1.4-11.5,1.8-17.2
						C804.6,679,804.2,678.9,803.9,678.8z"/>
					<path class="st14" d="M895.6,702.4c0.3-6.2,0.2-12.5-0.2-18.7c-0.4-0.1-0.7-0.2-1.1-0.3c0.4,6.2,0.5,12.5,0.2,18.7
						C894.9,702.2,895.3,702.3,895.6,702.4z"/>
					<path class="st14" d="M928.9,699.3c-1.8,4.9-3.8,9.6-5.9,14.4c0.3,0.2,0.6,0.3,0.9,0.5c2.1-4.7,4.1-9.4,5.9-14.2
						C929.5,699.7,929.2,699.5,928.9,699.3z"/>
					<path class="st14" d="M924.5,696.4c-2.1,4.9-4.2,9.8-6.4,14.6c0.3,0.2,0.6,0.3,0.9,0.5c2.2-4.8,4.3-9.7,6.4-14.5
						C925.1,696.7,924.8,696.5,924.5,696.4z"/>
					<path class="st14" d="M919.3,693.4c-1.4,5.3-3.1,10.6-5.3,15.6c0.3,0.1,0.6,0.3,0.9,0.4c2.1-5.1,3.9-10.2,5.3-15.6
						C919.9,693.7,919.6,693.6,919.3,693.4z"/>
					<path class="st14" d="M935.7,704.8c-1.9,4.4-4,8.7-6.2,12.9c0.3,0.2,0.6,0.4,0.9,0.6c2.1-4.2,4.2-8.5,6.1-12.8
						C936.3,705.3,936,705,935.7,704.8z"/>
					<path class="st14" d="M799.3,676.8c-0.5,5.8-1.5,11.5-2.9,17.1c0.3,0.1,0.6,0.3,1,0.4c1.4-5.6,2.4-11.2,2.9-17
						C799.9,677.1,799.6,676.9,799.3,676.8z"/>
					<path class="st14" d="M938.7,707.8c-1.9,4.1-3.9,8.1-6,12.1c0.3,0.2,0.6,0.4,0.9,0.6c2.1-3.9,4-7.9,5.9-11.9
						C939.3,708.3,939,708,938.7,707.8z"/>
					<path class="st14" d="M822,681.6c-0.3,0-0.7,0-1,0c0.6,6.3,2,12.4,4.2,18.3c0.4,0,0.7,0,1.1,0C824.1,694,822.6,687.8,822,681.6
						z"/>
					<path class="st14" d="M915,691.2c-1.8,5.3-3.6,10.6-5.6,15.8c0.3,0.1,0.6,0.3,1,0.4c2-5.2,3.9-10.4,5.6-15.7
						C915.7,691.5,915.4,691.4,915,691.2z"/>
					<path class="st14" d="M882.9,680.7c-0.3-0.1-0.7-0.1-1-0.2c0.1,6.4,0.2,12.9,0.6,19.3c0.3,0,0.7,0.1,1,0.1
						C883.2,693.6,883,687.1,882.9,680.7z"/>
					<path class="st14" d="M866,678.6c-0.3,0-0.7,0-1,0c0.9,6.7,1.5,13.4,1.9,20.1c0.3,0,0.7,0,1,0C867.5,692,866.9,685.3,866,678.6
						z"/>
					<path class="st14" d="M875.1,679.5c-0.3,0-0.7-0.1-1-0.1c0.2,6.6,0.6,13.2,1.2,19.8c0.3,0,0.7,0.1,1,0.1
						C875.7,692.6,875.3,686,875.1,679.5z"/>
					<path class="st14" d="M901.7,685.7c0.1,6.1-0.2,12.1-0.9,18.2c0.3,0.1,0.7,0.2,1,0.3c0.6-6,0.9-12.1,0.9-18.1
						C902.4,686,902,685.9,901.7,685.7z"/>
					<path class="st14" d="M907.6,688c-1.2,5.7-2.5,11.3-4,16.9c0.3,0.1,0.7,0.2,1,0.3c1.5-5.6,2.8-11.2,4-16.8
						C908.2,688.2,907.9,688.1,907.6,688z"/>
					<path class="st14" d="M852.9,678.7c-0.3,0-0.7,0-1,0.1c0.1,6.7,0.1,13.5,0.2,20.2c0.3,0,0.7,0,1-0.1
						C853,692.2,853,685.5,852.9,678.7z"/>
					<path class="st14" d="M887.4,681.6c-0.4-0.1-0.7-0.2-1.1-0.2c0.6,6.4,1.1,12.9,1.7,19.3c0.4,0.1,0.7,0.1,1.1,0.2
						C888.5,694.5,888,688.1,887.4,681.6z"/>
				</g>
			</g>
			<path class="st33" d="M892.1,570.3c5.2-3.1,0.5-11.1-4.7-8.1c-17.6,10.4-39.6,11-57.6,1.4c-5.3-2.8-10,5.3-4.7,8.1
				C846,582.8,871.6,582.4,892.1,570.3z"/>
			<path class="st32" d="M885.7,559c5.2-3.1,0.5-11.2-4.7-8.1c-14.7,8.8-33,9.6-48.4,1.8c-5.4-2.7-10.1,5.3-4.7,8.1
				C846.2,570,868,569.5,885.7,559z"/>
			<g>
				<linearGradient id="SVGID_26_" gradientUnits="userSpaceOnUse" x1="816.6753" y1="579.9" x2="822.2614" y2="572.4465">
					<stop  offset="0" style="stop-color:#4755FC"/>
					<stop  offset="1" style="stop-color:#2D43E2"/>
				</linearGradient>
				<path class="st34" d="M821.3,580.4c2.4-1,3.4-3.8,2.4-6.1c-1-2.4-3.8-3.4-6.1-2.4c-2.4,1-3.4,3.8-2.4,6.1S819,581.5,821.3,580.4
					z"/>
				<linearGradient id="SVGID_27_" gradientUnits="userSpaceOnUse" x1="822.7303" y1="586.9148" x2="828.3163" y2="579.4612">
					<stop  offset="0" style="stop-color:#4755FC"/>
					<stop  offset="1" style="stop-color:#2D43E2"/>
				</linearGradient>
				<path class="st35" d="M827.4,587.5c2.4-1,3.4-3.8,2.4-6.1s-3.8-3.4-6.1-2.4c-2.4,1-3.4,3.8-2.4,6.1
					C822.3,587.4,825,588.5,827.4,587.5z"/>
				<linearGradient id="SVGID_28_" gradientUnits="userSpaceOnUse" x1="831.0872" y1="590.7404" x2="836.6733" y2="583.2868">
					<stop  offset="0" style="stop-color:#4755FC"/>
					<stop  offset="1" style="stop-color:#2D43E2"/>
				</linearGradient>
				<path class="st36" d="M835.7,591.3c2.4-1,3.4-3.8,2.4-6.1c-1-2.4-3.8-3.4-6.1-2.4c-2.4,1-3.4,3.8-2.4,6.1
					S833.4,592.3,835.7,591.3z"/>
				<linearGradient id="SVGID_29_" gradientUnits="userSpaceOnUse" x1="839.648" y1="592.6597" x2="845.2341" y2="585.2061">
					<stop  offset="0" style="stop-color:#4755FC"/>
					<stop  offset="1" style="stop-color:#2D43E2"/>
				</linearGradient>
				<path class="st37" d="M844.3,593.2c2.4-1,3.4-3.8,2.4-6.1s-3.8-3.4-6.1-2.4c-2.4,1-3.4,3.8-2.4,6.1
					C839.2,593.2,841.9,594.2,844.3,593.2z"/>
				<linearGradient id="SVGID_30_" gradientUnits="userSpaceOnUse" x1="849.0606" y1="593.3542" x2="854.6466" y2="585.9006">
					<stop  offset="0" style="stop-color:#4755FC"/>
					<stop  offset="1" style="stop-color:#2D43E2"/>
				</linearGradient>
				<path class="st38" d="M853.7,593.9c2.4-1,3.4-3.8,2.4-6.1s-3.8-3.4-6.1-2.4c-2.4,1-3.4,3.8-2.4,6.1S851.4,594.9,853.7,593.9z"/>
				<linearGradient id="SVGID_31_" gradientUnits="userSpaceOnUse" x1="858.2185" y1="592.6597" x2="863.8046" y2="585.2061">
					<stop  offset="0" style="stop-color:#4755FC"/>
					<stop  offset="1" style="stop-color:#2D43E2"/>
				</linearGradient>
				<circle class="st39" cx="861" cy="588.9" r="4.7"/>
				<linearGradient id="SVGID_32_" gradientUnits="userSpaceOnUse" x1="866.806" y1="591.5723" x2="872.392" y2="584.1188">
					<stop  offset="0" style="stop-color:#4755FC"/>
					<stop  offset="1" style="stop-color:#2D43E2"/>
				</linearGradient>
				<path class="st40" d="M871.5,592.1c2.4-1,3.4-3.8,2.4-6.1c-1-2.4-3.8-3.4-6.1-2.4c-2.4,1-3.4,3.8-2.4,6.1
					C866.4,592.1,869.1,593.1,871.5,592.1z"/>
				<linearGradient id="SVGID_33_" gradientUnits="userSpaceOnUse" x1="876.216" y1="589.8019" x2="881.801" y2="582.3497">
					<stop  offset="0" style="stop-color:#4755FC"/>
					<stop  offset="1" style="stop-color:#2D43E2"/>
				</linearGradient>
				<path class="st41" d="M879.7,590.7c2.5-0.4,4.3-2.8,3.9-5.3s-2.8-4.3-5.3-3.9s-4.3,2.8-3.9,5.3
					C874.8,589.3,877.2,591.1,879.7,590.7z"/>
				<linearGradient id="SVGID_34_" gradientUnits="userSpaceOnUse" x1="885.1517" y1="586.2656" x2="890.7368" y2="578.8134">
					<stop  offset="0" style="stop-color:#4755FC"/>
					<stop  offset="1" style="stop-color:#2D43E2"/>
				</linearGradient>
				<path class="st42" d="M888.7,587.1c2.5-0.4,4.3-2.8,3.9-5.3s-2.8-4.3-5.3-3.9s-4.3,2.8-3.9,5.3S886.1,587.5,888.7,587.1z"/>
				<linearGradient id="SVGID_35_" gradientUnits="userSpaceOnUse" x1="892.4965" y1="580.9911" x2="898.0816" y2="573.5389">
					<stop  offset="0" style="stop-color:#4755FC"/>
					<stop  offset="1" style="stop-color:#2D43E2"/>
				</linearGradient>
				<circle class="st43" cx="895.3" cy="577.3" r="4.7"/>
			</g>
			<g>
				<path class="st33" d="M800.1,573.5c-2.7,9.5-4.5,19.3-3.2,29.2c1.7,12.4,8.2,23.9,19.8,29.3c24.9,11.4,54.9-2.1,72.1-20.8
					c7.7-8.3,13.7-18,18.4-28.3c-0.9-0.5-1.9-1-2.8-1.5c-12,25.6-33,48.3-62.6,51.2c-17.5,1.7-34.6-5-40.3-22.8
					c-3.8-11.9-1.8-24,1.5-35.7C802.2,573.8,801.1,573.7,800.1,573.5z"/>
				<linearGradient id="SVGID_36_" gradientUnits="userSpaceOnUse" x1="808.6978" y1="633.1724" x2="816.3469" y2="622.9659">
					<stop  offset="0" style="stop-color:#9FFFFF"/>
					<stop  offset="1" style="stop-color:#7AFCF8"/>
				</linearGradient>
				<path class="st44" d="M815.1,633.9c3.2-1.4,4.7-5.2,3.3-8.4c-1.4-3.2-5.2-4.7-8.4-3.3c-3.2,1.4-4.7,5.2-3.3,8.4
					C808.1,633.8,811.8,635.3,815.1,633.9z"/>
				<linearGradient id="SVGID_37_" gradientUnits="userSpaceOnUse" x1="819.7703" y1="639.5502" x2="827.4194" y2="629.3438">
					<stop  offset="0" style="stop-color:#9FFFFF"/>
					<stop  offset="1" style="stop-color:#7AFCF8"/>
				</linearGradient>
				<circle class="st45" cx="823.6" cy="634.4" r="6.4"/>
				<linearGradient id="SVGID_38_" gradientUnits="userSpaceOnUse" x1="832.6929" y1="641.2513" x2="840.342" y2="631.0449">
					<stop  offset="0" style="stop-color:#9FFFFF"/>
					<stop  offset="1" style="stop-color:#7AFCF8"/>
				</linearGradient>
				<path class="st46" d="M839.1,642c3.2-1.4,4.7-5.2,3.3-8.4c-1.4-3.2-5.2-4.7-8.4-3.3c-3.2,1.4-4.7,5.2-3.3,8.4
					C832.1,641.9,835.8,643.4,839.1,642z"/>
				<linearGradient id="SVGID_39_" gradientUnits="userSpaceOnUse" x1="845.6569" y1="638.1254" x2="853.306" y2="627.9189">
					<stop  offset="0" style="stop-color:#9FFFFF"/>
					<stop  offset="1" style="stop-color:#7AFCF8"/>
				</linearGradient>
				<circle class="st47" cx="849.5" cy="633" r="6.4"/>
			</g>
			<path class="st33" d="M949.8,737.1c20.1-12.4,43.5-17.6,66.9-14.8c5.3,0.6,5.3-7.7,0-8.3c-24.8-2.9-49.9,2.8-71.1,16
				C941.1,732.7,945.3,739.9,949.8,737.1z"/>
			<path class="st33" d="M950.6,750c20.2-12.5,44.2-17.5,67.7-13.8c5.2,0.8,7.5-7.2,2.2-8c-25.7-4.1-51.9,0.9-74.1,14.6
				C941.8,745.6,946,752.8,950.6,750z"/>
			<path class="st33" d="M718.1,520.2c2.6-2.2-1.1-5.8-3.7-3.7c-19.9,16.9-30.2,43.4-26.7,69.3c0.4,3.3,5.6,3.3,5.2,0
				C689.6,561.1,699.1,536.3,718.1,520.2z"/>
			<path class="st33" d="M698.8,592c1.4-23.9,11.5-46.4,28.2-63.4c2.3-2.4-1.3-6.1-3.7-3.7c-17.7,18-28.3,41.9-29.8,67.1
				C693.4,595.4,698.6,595.3,698.8,592z"/>
			<g>
				<linearGradient id="SVGID_40_" gradientUnits="userSpaceOnUse" x1="904.418" y1="314.692" x2="904.418" y2="365.1444">
					<stop  offset="0" style="stop-color:#FAC515"/>
					<stop  offset="1" style="stop-color:#EFB000"/>
				</linearGradient>
				<path class="st48" d="M904.4,373.2L904.4,373.2L904.4,373.2c71.8,0,137.8-39.5,171.7-102.8v0c3.4-6.4-1.2-14.2-8.5-14.2H904.4
					H741.2c-7.3,0-11.9,7.8-8.5,14.2l0,0C766.6,333.7,832.6,373.2,904.4,373.2z"/>
				<path class="st14" d="M761.9,286.6c12.5,1.3,22.9,9.9,35.4,11.5c24.5,3.1,45-17.9,69.5-12.3c11.7,2.6,22.3,8.4,33.6,12.2
					c11.6,3.9,23.2,4.7,35.1,1.8c11.8-2.9,22.8-8.6,34.8-11.1c13.3-2.8,24.3,3.2,37,5.6c16,3,31.5-1.2,47.4-2.8
					c2.8-0.3,5.7-0.5,8.7-0.5c2.7-3.9,5.3-7.8,7.8-11.9c-15.3-1.2-31.7,3-46.9,3.8c-7.1,0.4-13.8-0.4-20.6-2.3
					c-6.8-2-13.4-4.4-20.6-5.1c-12.8-1.2-24.9,3.5-36.7,7.8c-12,4.4-23.8,7.8-36.6,4.6c-12.1-3.1-23.2-9.3-35.2-12.8
					c-12.7-3.8-24.9-3.2-37.4,0.9c-11.8,3.9-24,10.9-36.8,10.1c-7.5-0.5-14.3-4.2-21.1-7.1c-6.6-2.8-13.3-4.8-20.5-4.9
					c-7.4-0.1-14.7,1.6-21.3,4.8c2.2,3.6,4.5,7.2,6.8,10.6C749.8,287,755.8,285.9,761.9,286.6z"/>
				<g>
					<path class="st14" d="M765,301.9c0.9-1,1-2.7,0-3.7c-0.6-0.6-1.2-1.1-1.7-1.7c-1-1-2.7-1-3.7,0c-0.9,1-1,2.7,0,3.7
						c0.6,0.6,1.2,1.1,1.7,1.7C762.3,302.8,764,302.9,765,301.9z"/>
					<path class="st14" d="M806.5,326.8c1.4-0.4,2.1-1.8,1.8-3.2c-0.6-3-2.1-5.8-4.1-8.1c-2.2-2.5-5.9,1.2-3.7,3.7
						c1.5,1.7,2.4,3.6,2.8,5.8C803.6,326.3,805.2,327.1,806.5,326.8z"/>
					<path class="st14" d="M837.1,305.6c1-1,1-2.6,0-3.7c-0.3-0.3-0.7-0.7-1-1c-1-1-2.7-1-3.7,0c-1,1-1,2.6,0,3.7
						c0.3,0.3,0.7,0.7,1,1C834.4,306.6,836.1,306.7,837.1,305.6z"/>
					<path class="st14" d="M865.5,313.8c-0.5-2.1-0.9-4.2-1.4-6.2c-0.7-3.3-5.7-1.9-5,1.4c0.5,2.1,0.9,4.2,1.4,6.2
						C861.2,318.5,866.2,317.1,865.5,313.8z"/>
					<path class="st14" d="M880.8,331.5c0-2.2,0-4.4,0-6.6c0-3.3-5.2-3.3-5.2,0c0,2.2,0,4.4,0,6.6
						C875.6,334.9,880.8,334.9,880.8,331.5z"/>
					<path class="st14" d="M897.4,339.7C897.4,339.8,897.4,339.8,897.4,339.7C897.4,339.8,897.4,339.8,897.4,339.7
						C897.4,339.8,897.4,339.7,897.4,339.7C897.4,339.7,897.3,339.7,897.4,339.7C897.3,339.7,897.3,339.7,897.4,339.7z"/>
					<polygon class="st14" points="897.4,339.8 897.4,339.8 897.4,339.8 					"/>
					<path class="st14" d="M897.3,339.7C897.3,339.7,897.4,339.7,897.3,339.7C897.4,339.7,897.4,339.7,897.3,339.7
						C897.3,339.7,897.3,339.7,897.3,339.7C897.3,339.7,897.3,339.7,897.3,339.7z"/>
					<path class="st14" d="M897.4,339.7C897.3,339.7,897.3,339.7,897.4,339.7C897.3,339.5,897.2,339.6,897.4,339.7
						C897.3,339.7,897.3,339.7,897.4,339.7C897.3,339.7,897.3,339.7,897.4,339.7z"/>
					<path class="st14" d="M897.3,339.7C897.3,339.7,897.3,339.7,897.3,339.7C897.3,339.7,897.3,339.7,897.3,339.7
						C897.3,339.7,897.3,339.7,897.3,339.7z"/>
					<path class="st14" d="M897.4,339.8C897.4,339.8,897.4,339.8,897.4,339.8C897.4,339.8,897.4,339.8,897.4,339.8
						C897.4,339.8,897.4,339.8,897.4,339.8C897.4,339.8,897.4,339.8,897.4,339.8z"/>
					<path class="st14" d="M897.3,339.7C897.3,339.7,897.3,339.7,897.3,339.7C897.3,339.7,897.3,339.7,897.3,339.7
						C897.3,339.7,897.3,339.7,897.3,339.7C897.3,339.7,897.3,339.7,897.3,339.7C897.3,339.7,897.3,339.7,897.3,339.7z"/>
					<path class="st14" d="M897.3,339.7C897.3,339.7,897.3,339.7,897.3,339.7C897.3,339.7,897.3,339.7,897.3,339.7z"/>
					<path class="st14" d="M897.5,339.9C897.5,339.9,897.5,339.9,897.5,339.9C897.4,339.8,897.4,339.8,897.5,339.9
						C897.5,339.9,897.5,339.9,897.5,339.9z"/>
					<polygon class="st14" points="897.4,339.8 897.4,339.8 897.4,339.8 					"/>
					<path class="st14" d="M897.4,339.7C897.3,339.7,897.3,339.7,897.4,339.7C897.3,339.7,897.3,339.7,897.4,339.7
						C897.3,339.7,897.3,339.7,897.4,339.7C897.3,339.7,897.3,339.7,897.4,339.7C897.3,339.7,897.4,339.8,897.4,339.7
						C897.4,339.8,897.4,339.8,897.4,339.7C897.4,339.8,897.4,339.8,897.4,339.7C897.4,339.8,897.4,339.8,897.4,339.7z"/>
					<path class="st14" d="M897.3,339.7C897.3,339.7,897.3,339.7,897.3,339.7C897.3,339.7,897.3,339.7,897.3,339.7
						C897.3,339.7,897.3,339.7,897.3,339.7C897.3,339.7,897.3,339.7,897.3,339.7z"/>
					<polygon class="st14" points="897.3,339.7 897.3,339.7 897.3,339.7 					"/>
					<path class="st14" d="M897.3,339.7C897.3,339.7,897.3,339.7,897.3,339.7C897.3,339.8,897.3,339.8,897.3,339.7
						c0.1,0.1,0.1,0.1,0.1,0.1C897.4,339.8,897.3,339.7,897.3,339.7C897.3,339.7,897.3,339.7,897.3,339.7z"/>
					<path class="st14" d="M897.2,339.7C897.1,339.7,897.2,339.7,897.2,339.7C897.3,339.8,897.3,339.8,897.2,339.7
						C897.3,339.7,897.3,339.7,897.2,339.7z"/>
					<path class="st14" d="M897.4,339.8C897.4,339.8,897.4,339.8,897.4,339.8C897.5,339.8,897.5,339.8,897.4,339.8
						C897.4,339.8,897.4,339.8,897.4,339.8C897.4,339.8,897.4,339.8,897.4,339.8C897.4,339.8,897.4,339.8,897.4,339.8z"/>
					<path class="st14" d="M897.3,339.7C897.3,339.7,897.3,339.7,897.3,339.7C897.3,339.7,897.3,339.7,897.3,339.7
						C897.3,339.7,897.3,339.7,897.3,339.7C897.3,339.7,897.3,339.7,897.3,339.7z"/>
					<path class="st14" d="M897.4,339.8C897.5,339.9,897.5,339.8,897.4,339.8C897.4,339.8,897.4,339.8,897.4,339.8
						C897.4,339.8,897.4,339.8,897.4,339.8z"/>
					<path class="st14" d="M897.4,339.8C897.4,339.8,897.4,339.8,897.4,339.8C897.4,339.8,897.4,339.8,897.4,339.8
						C897.4,339.8,897.4,339.8,897.4,339.8C897.4,339.8,897.4,339.8,897.4,339.8C897.4,339.8,897.4,339.8,897.4,339.8z"/>
					<path class="st14" d="M896.2,344.8c0.7,0.1,1.3,0.1,2-0.3c0.5-0.3,1.1-0.9,1.2-1.6c0.3-1.2-0.4-3-1.8-3.2c-0.1,0-0.1,0-0.2,0
						c0,0,0,0,0,0c0,0,0.1,0,0.1,0c0.1,0,0,0,0,0c0,0,0,0,0,0c0,0,0,0.1,0,0.1c0,0,0-0.1-0.1-0.1c0,0,0,0,0,0c0,0,0,0,0,0
						c0,0.1,0,0-0.1-0.1c-0.1,0-0.2-0.1-0.1-0.1c-0.1-0.1-0.1-0.1,0-0.1c0,0,0,0,0.1,0c0,0,0,0,0,0c0,0,0,0,0,0c0-0.1,0-0.1,0.1,0
						c0,0,0,0,0,0c0,0,0,0,0,0c0-0.1,0-0.2,0-0.2c-0.1-0.6-0.7-1.3-1.2-1.6c-0.6-0.3-1.4-0.5-2-0.3c-0.6,0.2-1.2,0.6-1.6,1.2
						c-0.3,0.7-0.4,1.3-0.3,2C892.6,342.7,894.4,344.5,896.2,344.8z"/>
					<path class="st14" d="M897.4,339.8C897.4,339.8,897.4,339.8,897.4,339.8C897.4,339.7,897.4,339.7,897.4,339.8
						C897.4,339.7,897.4,339.8,897.4,339.8z"/>
					<path class="st14" d="M897.4,339.7C897.4,339.7,897.4,339.7,897.4,339.7C897.4,339.7,897.4,339.7,897.4,339.7
						C897.4,339.7,897.4,339.7,897.4,339.7C897.4,339.7,897.4,339.7,897.4,339.7z"/>
					<path class="st14" d="M897.4,339.8C897.4,339.8,897.4,339.8,897.4,339.8C897.4,339.8,897.4,339.8,897.4,339.8
						C897.4,339.8,897.4,339.8,897.4,339.8z"/>
					<path class="st14" d="M897.3,339.7C897.3,339.7,897.3,339.7,897.3,339.7C897.3,339.7,897.3,339.7,897.3,339.7
						C897.3,339.7,897.3,339.7,897.3,339.7z"/>
					<path class="st14" d="M897.3,339.8C897.3,339.8,897.3,339.8,897.3,339.8C897.3,339.8,897.3,339.8,897.3,339.8
						C897.3,339.8,897.3,339.8,897.3,339.8z"/>
					<path class="st14" d="M897.4,339.8C897.4,339.8,897.4,339.8,897.4,339.8C897.4,339.8,897.4,339.8,897.4,339.8
						C897.4,339.8,897.4,339.8,897.4,339.8z"/>
					<path class="st14" d="M897.3,339.7C897.3,339.7,897.2,339.7,897.3,339.7C897.1,339.6,897.2,339.6,897.3,339.7
						C897.3,339.7,897.3,339.7,897.3,339.7C897.3,339.7,897.3,339.7,897.3,339.7z"/>
					<path class="st14" d="M897.4,339.8C897.4,339.8,897.4,339.8,897.4,339.8C897.4,339.8,897.4,339.8,897.4,339.8
						C897.4,339.8,897.4,339.8,897.4,339.8C897.4,339.8,897.4,339.8,897.4,339.8z"/>
					<path class="st14" d="M897.3,339.8C897.4,339.9,897.4,340,897.3,339.8C897.4,339.8,897.4,339.8,897.3,339.8
						C897.4,339.8,897.4,339.8,897.3,339.8C897.3,339.8,897.3,339.8,897.3,339.8z"/>
					<path class="st14" d="M915.6,317.1c0.6,0,1.4-0.3,1.8-0.8c0.5-0.5,0.8-1.1,0.8-1.8c0-0.7-0.3-1.3-0.8-1.8
						c-0.5-0.6-0.9-1.2-1.4-1.7c-0.4-0.5-1.2-0.8-1.8-0.8c-0.6,0-1.4,0.3-1.8,0.8c-0.5,0.5-0.8,1.1-0.8,1.8c0,0.7,0.3,1.3,0.8,1.8
						c0.5,0.6,0.9,1.2,1.4,1.7C914.2,316.9,915,317.1,915.6,317.1z"/>
					<path class="st14" d="M949.2,312.6c1.3,0.4,2.9-0.5,3.2-1.8c0.3-1.4-0.4-2.7-1.8-3.2c-0.7-0.2-1.4-0.5-2.1-0.7
						c-1.3-0.4-2.9,0.5-3.2,1.8c-0.3,1.4,0.4,2.7,1.8,3.2C947.8,312.1,948.5,312.4,949.2,312.6z"/>
					<path class="st14" d="M918,364c2.8-2.1,5.6-4.1,8.4-6.2c1.1-0.8,1.7-2.3,0.9-3.6c-0.7-1.1-2.4-1.8-3.6-0.9
						c-2.8,2.1-5.6,4.1-8.4,6.2c-1.1,0.8-1.7,2.3-0.9,3.6C915.1,364.2,916.9,364.8,918,364z"/>
					<path class="st14" d="M865.9,351.6c0-0.6,0-1.2,0-1.7c0-1.4-1.2-2.7-2.6-2.6c-1.4,0.1-2.6,1.1-2.6,2.6c0,0.6,0,1.2,0,1.7
						c0,1.4,1.2,2.7,2.6,2.6C864.7,354.2,865.9,353.1,865.9,351.6z"/>
					<path class="st14" d="M946.9,343.1c1.2,0.6,2.9,0.4,3.6-0.9c0.6-1.2,0.4-2.9-0.9-3.6c-0.5-0.2-0.9-0.5-1.4-0.7
						c-1.2-0.6-2.9-0.4-3.6,0.9c-0.6,1.2-0.4,2.9,0.9,3.6C946,342.7,946.4,342.9,946.9,343.1z"/>
					<path class="st14" d="M1003.7,313.6c1-1.1,1-2.6,0-3.7c-0.9-1-1.8-2.1-2.8-3.1c-0.9-1-2.8-1-3.7,0c-1,1.1-1,2.6,0,3.7
						c0.9,1,1.8,2.1,2.8,3.1C1001,314.6,1002.8,314.6,1003.7,313.6z"/>
					<path class="st14" d="M1021.7,312.2c0.9-1,1.1-2.7,0-3.7c-1.2-1-2.3-2.1-3.5-3.1c-1-0.9-2.7-1.1-3.7,0c-0.9,1-1.1,2.7,0,3.7
						c1.2,1,2.3,2.1,3.5,3.1C1019.1,313.1,1020.8,313.3,1021.7,312.2z"/>
					<path class="st14" d="M1039.8,307.7c1-1,1-2.6,0-3.7c-0.6-0.6-1.1-1.2-1.7-1.7c-1-1-2.7-1-3.7,0c-1,1-1,2.6,0,3.7
						c0.6,0.6,1.1,1.2,1.7,1.7C1037.1,308.7,1038.8,308.7,1039.8,307.7z"/>
					<path class="st14" d="M994.5,335.7c1.7-2.5,3.5-5.1,5.2-7.6c1.9-2.8-2.6-5.4-4.5-2.6c-1.7,2.5-3.5,5.1-5.2,7.6
						C988.1,335.8,992.6,338.4,994.5,335.7z"/>
					<path class="st32" d="M780.5,313c0.6,0,1.4-0.3,1.8-0.8c0.5-0.5,0.8-1.1,0.8-1.8c0-0.7-0.3-1.3-0.8-1.8
						c-0.5-0.6-0.9-1.2-1.4-1.7c-0.4-0.5-1.2-0.8-1.8-0.8c-0.6,0-1.4,0.3-1.8,0.8c-0.5,0.5-0.8,1.1-0.8,1.8c0,0.7,0.3,1.3,0.8,1.8
						c0.5,0.6,0.9,1.2,1.4,1.7C779.1,312.7,779.9,313,780.5,313z"/>
					<path class="st32" d="M790.8,310.2c1.2-0.7,1.7-2.3,0.9-3.6c-0.6-0.9-1.2-1.8-1.7-2.8c-0.7-1.2-2.4-1.7-3.6-0.9
						c-1.2,0.7-1.7,2.3-0.9,3.6c0.6,0.9,1.2,1.8,1.7,2.8C788,310.4,789.6,311,790.8,310.2z"/>
					<path class="st32" d="M816.2,319.9c1.1-0.7,1.8-2.4,0.9-3.6c-0.9-1.3-1.8-2.5-2.8-3.8c-0.8-1.1-2.3-1.7-3.6-0.9
						c-1.1,0.7-1.8,2.4-0.9,3.6c0.9,1.3,1.8,2.5,2.8,3.8C813.4,320,814.9,320.7,816.2,319.9z"/>
					<path class="st32" d="M809.4,336.7c0-0.1,0-0.2,0-0.3c0-1.4-1.2-2.7-2.6-2.6c-1.4,0.1-2.6,1.1-2.6,2.6c0,0.1,0,0.2,0,0.3
						c0,1.4,1.2,2.7,2.6,2.6C808.2,339.3,809.4,338.2,809.4,336.7z"/>
					<path class="st32" d="M832.6,322c0.6,0.3,1.4,0.5,2,0.3c1.2-0.4,2.4-1.8,1.8-3.2c-0.2-0.6-0.5-1.2-0.7-1.7
						c-0.3-0.7-0.6-1.2-1.2-1.6c-0.6-0.3-1.4-0.5-2-0.3c-1.2,0.4-2.4,1.8-1.8,3.2c0.2,0.6,0.5,1.2,0.7,1.7
						C831.7,321.1,832,321.6,832.6,322z"/>
					<path class="st32" d="M856,298.8c1.4,0,2.7-1.2,2.6-2.6c-0.1-1.4-1.1-2.6-2.6-2.6c-0.2,0-0.5,0-0.7,0c-1.4,0-2.7,1.2-2.6,2.6
						c0.1,1.4,1.1,2.6,2.6,2.6C855.6,298.8,855.8,298.8,856,298.8z"/>
					<path class="st32" d="M848,341c1.4-0.4,2.2-1.8,1.8-3.2c-0.2-0.9-0.5-1.8-0.7-2.8c-0.3-1.3-1.9-2.2-3.2-1.8
						c-1.4,0.4-2.2,1.8-1.8,3.2c0.2,0.9,0.5,1.8,0.7,2.8C845.1,340.5,846.7,341.4,848,341z"/>
					<path class="st32" d="M877.6,306.7c1-1,1-2.6,0-3.7c-0.5-0.5-0.9-0.9-1.4-1.4c-1-1-2.7-1-3.7,0c-1,1-1,2.6,0,3.7
						c0.5,0.5,0.9,0.9,1.4,1.4C874.9,307.6,876.7,307.7,877.6,306.7z"/>
					<path class="st32" d="M897.2,323c1.1-0.7,1.7-2.3,0.9-3.6c-0.7-1-1.4-2.1-2.1-3.1c-0.8-1.1-2.3-1.7-3.6-0.9
						c-1.1,0.7-1.7,2.3-0.9,3.6c0.7,1,1.4,2.1,2.1,3.1C894.4,323.2,896,323.8,897.2,323z"/>
					<path class="st32" d="M915.9,340c1.2-0.8,1.6-2.3,0.9-3.6c-0.3-0.7-0.7-1.4-1-2.1c-0.6-1.2-2.4-1.7-3.6-0.9
						c-1.2,0.8-1.6,2.3-0.9,3.6c0.3,0.7,0.7,1.4,1,2.1C912.9,340.3,914.8,340.7,915.9,340z"/>
					<path class="st32" d="M886.3,360.2c0.3-0.7,0.7-1.4,1-2.1c0.6-1.2,0.4-2.9-0.9-3.6c-1.2-0.6-2.9-0.4-3.6,0.9
						c-0.3,0.7-0.7,1.4-1,2.1c-0.6,1.2-0.4,2.9,0.9,3.6C883.9,361.7,885.6,361.5,886.3,360.2z"/>
					<path class="st32" d="M932.8,318.7c0.2-2.2,0.5-4.4,0.7-6.6c0.1-1.4-1.3-2.6-2.6-2.6c-1.5,0-2.5,1.2-2.6,2.6
						c-0.2,2.2-0.5,4.4-0.7,6.6c-0.1,1.4,1.3,2.6,2.6,2.6C931.7,321.3,932.6,320.1,932.8,318.7z"/>
					<path class="st32" d="M934.9,340.2c0-0.7,0-1.4,0-2.1c0-1.4-1.2-2.7-2.6-2.6c-1.4,0.1-2.6,1.1-2.6,2.6c0,0.7,0,1.4,0,2.1
						c0,1.4,1.2,2.7,2.6,2.6C933.7,342.7,934.9,341.6,934.9,340.2z"/>
					<path class="st32" d="M940,361.4c0.2-0.2,0.5-0.5,0.7-0.7c1-1,1-2.7,0-3.7c-1-1-2.6-1-3.7,0c-0.2,0.2-0.5,0.5-0.7,0.7
						c-1,1-1,2.7,0,3.7C937.3,362.4,939,362.4,940,361.4z"/>
					<path class="st32" d="M966.9,340.2c0.6,0.2,1.5,0.1,2-0.3c1.1-0.7,1.8-2.4,0.9-3.6c-0.3-0.5-0.7-0.9-1-1.4
						c-0.4-0.6-0.8-1-1.6-1.2c-0.6-0.2-1.5-0.1-2,0.3c-1.1,0.7-1.8,2.4-0.9,3.6c0.3,0.5,0.7,0.9,1,1.4
						C965.8,339.6,966.2,340,966.9,340.2z"/>
					<path class="st32" d="M975,309.8c1-1,1-2.6,0-3.7c-0.2-0.2-0.5-0.5-0.7-0.7c-1-1-2.7-1-3.7,0c-1,1-1,2.6,0,3.7
						c0.2,0.2,0.5,0.5,0.7,0.7C972.3,310.8,974,310.8,975,309.8z"/>
					<path class="st32" d="M990.1,303.9c1.3-0.4,2.3-1.8,1.8-3.2c-0.2-0.7-0.5-1.4-0.7-2.1c-0.4-1.3-1.8-2.3-3.2-1.8
						c-1.3,0.4-2.3,1.8-1.8,3.2c0.2,0.7,0.5,1.4,0.7,2.1C987.3,303.4,988.7,304.3,990.1,303.9z"/>
					<path class="st32" d="M982.8,328.9c1.3-0.1,2.8-1.2,2.6-2.6c-0.1-0.9-0.2-1.8-0.3-2.8c-0.1-0.7-0.2-1.3-0.8-1.8
						c-0.5-0.5-1.2-0.8-1.8-0.8c-1.3,0.1-2.8,1.2-2.6,2.6c0.1,0.9,0.2,1.8,0.3,2.8c0.1,0.7,0.2,1.3,0.8,1.8
						C981.4,328.6,982.1,329,982.8,328.9z"/>
					<path class="st32" d="M1014.1,323.3c1-1,1-2.6,0-3.7c-0.1-0.1-0.2-0.2-0.3-0.3c-1-1-2.7-1-3.7,0c-1,1-1,2.6,0,3.7
						c0.1,0.1,0.2,0.2,0.3,0.3C1011.4,324.3,1013.2,324.3,1014.1,323.3z"/>
					<path class="st32" d="M980.2,349.9C980.2,349.9,980.2,349.8,980.2,349.9c0.1-0.1,0.1-0.2,0.2-0.2
						C980.5,349.5,980.4,349.6,980.2,349.9z"/>
					<path class="st32" d="M980.6,349.4C980.6,349.4,980.7,349.4,980.6,349.4c0.1,0,0.1-0.1,0.1-0.1
						C981.1,349,980.4,349.6,980.6,349.4z"/>
					<path class="st32" d="M976.3,351.4c1.1,0.6,3,0.4,3.6-0.9c0.1-0.2,0.2-0.5,0.4-0.7c0,0,0,0,0,0c0,0,0,0,0,0
						c0.2-0.3,0.3-0.4,0.2-0.2c0,0.1-0.1,0.1-0.1,0.2c0.1-0.1,0.2-0.2,0.2-0.2c0.1-0.1,0.1-0.1,0.2-0.2c0,0,0,0,0,0
						c-0.3,0.2,0.4-0.4,0.1-0.1c0,0,0,0-0.1,0.1c0.2-0.1,0.5-0.3,0.7-0.4c0.6-0.3,1-1,1.2-1.6c0.2-0.6,0.1-1.5-0.3-2
						c-0.8-1.3-2.2-1.5-3.6-0.9c-1.4,0.6-2.7,1.9-3.3,3.4c-0.3,0.7-0.5,1.3-0.3,2C975.3,350.5,975.8,351.1,976.3,351.4z"/>
				</g>
			</g>
		</g>
		<g>
			<linearGradient id="SVGID_41_" gradientUnits="userSpaceOnUse" x1="1300.9005" y1="1212.6166" x2="1300.9005" y2="1633.4395">
				<stop  offset="0" style="stop-color:#FAC515"/>
				<stop  offset="1" style="stop-color:#EFB000"/>
			</linearGradient>
			<path class="st49" d="M1187.1,1112.4c-12.5,18.9-23.1,38.7-31.7,59.4c-26.3,63.1-33,132.6-20.6,199.8l74.3,403.3
				c3.2,17.2,18.2,29.8,35.7,29.8h56.1h56.1c17.5,0,32.6-12.5,35.7-29.8l74.3-403.3c12.4-67.2,5.7-136.7-20.6-199.8
				c-8.6-20.6-19.2-40.5-31.7-59.4l-35.1-52.8c-17-25.6-23.5-56.7-18.1-86.9l17-95.6c1.8-9.9-5.8-18.9-15.9-18.9h-61.8h-61.8
				c-10,0-17.6,9.1-15.9,18.9l17,95.6c5.4,30.2-1.1,61.3-18.1,86.9L1187.1,1112.4z"/>
			<linearGradient id="SVGID_42_" gradientUnits="userSpaceOnUse" x1="1131.0427" y1="1244.1477" x2="1471.0278" y2="1244.1477">
				<stop  offset="0" style="stop-color:#9FFFFF"/>
				<stop  offset="1" style="stop-color:#7AFCF8"/>
			</linearGradient>
			<path class="st50" d="M1223.5,1323.5c38.6,1.4,74.9,22.1,114,17.2c18.8-2.3,35.6-11.4,53.5-16.9c9.8-3,19.6-4.5,29.9-3.8
				c9.9,0.6,19.7,2.6,29.5,3.8c7.5,0.9,15,1.2,22.2,0.2c2.6-51.9-6-104-26.2-152.3c-1.7-4-3.4-7.9-5.2-11.8
				c-30.4,1.1-58.9,15.6-88.6,21.8c-19.6,4-38.5,2.6-57.4-3.8c-18.6-6.3-36.1-15.6-54.5-22.4c-23.7-8.9-49.8-12-74.4-7.1
				c-3.9,7.7-7.5,15.5-10.8,23.4c-22.5,53.9-30.7,112.6-24.8,170.5C1162,1342.4,1191.5,1322.3,1223.5,1323.5z"/>
			<path class="st32" d="M1371.5,1045.4c-10.8-22.5-14.4-47.9-10-72.7l5.9-32.9c-44.3-0.1-88.6,0-132.8,0.4l5.8,32.5
				c4.5,25,0.8,50.6-10.2,73.1C1277.2,1045.4,1324.4,1045.2,1371.5,1045.4z"/>
			<path class="st32" d="M1244.8,1804.6h56.1h56.1c17.5,0,32.6-12.5,35.7-29.8l33.2-180.1c-6.4-0.1-12.9,0.4-19.5,1.4
				c-10.4,1.6-20.5,5.3-29.5,10.6c-7.3,4.3-13.9,9.8-20.4,15.2c-1.4,1-2.8,1.9-4.3,2.8c-13.9-3.6-26.5-11.4-40.6-14.5
				c-13.8-3.1-27.8-3.6-41.5,0.4c-9.2,2.7-17.8,7.2-26.5,11.2c-2.6,0.9-5.1,1.6-7.8,2.2c-2.4,0.1-4.8,0.1-7.3,0
				c-2.4-0.5-4.7-1.2-7-1.9c-11.6-5.9-22.6-13.7-35.6-16.3c-2.8-0.5-5.5-1-8.3-1.2l31.4,170.2
				C1212.2,1792.1,1227.3,1804.6,1244.8,1804.6z"/>
			<linearGradient id="SVGID_43_" gradientUnits="userSpaceOnUse" x1="1188.3782" y1="1645.231" x2="1413.5593" y2="1645.231">
				<stop  offset="0" style="stop-color:#FAC515"/>
				<stop  offset="1" style="stop-color:#EFB000"/>
			</linearGradient>
			<path class="st51" d="M1249.2,1658c7.9-3.6,14.4-10,22.7-12.6c18.2-5.6,36.1,4,51.7,12.5c8.3,4.5,17.4,9.1,27.1,8.6
				c9-0.4,16.3-5,23.2-10.4c13-10.2,27.6-16.2,43.6-15.4l3.1-16.6c-13.7-1.1-27.4,1.3-40,7.4c-8,3.9-14.1,9.9-21.5,14.7
				c-8.7,5.7-16.6,2.6-25.1-1.9c-16.7-8.9-33.9-18.3-53.5-17.3c-9.2,0.5-17.8,3.2-25.7,8c-7.6,4.7-14.4,10.4-23.8,9.6
				c-11.1-0.9-20.9-7.6-30.6-12.4c-6.1-3-12.3-5.5-18.8-6.9l3.4,18.3c12.4,4.3,23.9,13,36.6,16.2
				C1230.8,1662.3,1240.3,1662,1249.2,1658z"/>
			<path class="st33" d="M1272.1,1006.7c0.6,0.6,1.4,0.9,2.1,0.9c0.8,0,1.5-0.3,2.1-0.9l24.6-24.6l24.6,24.6
				c0.6,0.6,1.4,0.9,2.1,0.9s1.5-0.3,2.1-0.9l24.6-24.6l5.4,5.4c0.1-2.6,0.4-5.2,0.7-7.8l-3.9-3.9c-1.2-1.2-3.1-1.2-4.2,0
				l-24.6,24.6l-24.6-24.6c-1.2-1.2-3.1-1.2-4.2,0l-24.6,24.6l-24.6-24.6c-1.2-1.2-3.1-1.2-4.2,0l-4,4c0.3,2.6,0.5,5.2,0.7,7.8
				l5.4-5.4L1272.1,1006.7z"/>
			<g>
				<path class="st33" d="M1216.6,1761.4c0.6,0,1.2-0.2,1.6-0.7l18.6-18.6l18.6,18.6c0.4,0.4,1,0.7,1.6,0.7c0.6,0,1.2-0.2,1.6-0.7
					l18.6-18.6l18.6,18.6c0.4,0.4,1,0.7,1.6,0.7s1.2-0.2,1.6-0.7l18.6-18.6l18.6,18.6c0.4,0.4,1,0.7,1.6,0.7c0.6,0,1.2-0.2,1.6-0.7
					l18.6-18.6l18.6,18.6c0.4,0.4,1,0.7,1.6,0.7s1.2-0.2,1.6-0.7l18.6-18.6l0.6,0.6l1-5.4c-0.9-0.9-2.3-0.9-3.2,0l-18.6,18.6
					l-18.6-18.6c-0.9-0.9-2.3-0.9-3.2,0l-18.6,18.6l-18.6-18.6c-0.9-0.9-2.3-0.9-3.2,0l-18.6,18.6l-18.6-18.6
					c-0.9-0.9-2.3-0.9-3.2,0l-18.6,18.6l-18.6-18.6c-0.9-0.9-2.3-0.9-3.2,0l-18.6,18.6l-13.5-13.5l1.4,7.8l10.5,10.5
					C1215.4,1761.2,1216,1761.4,1216.6,1761.4z"/>
				<path class="st33" d="M1215,1711.4c0.4,0.4,1,0.7,1.6,0.7c0.6,0,1.2-0.2,1.6-0.7l18.6-18.6l18.6,18.6c0.4,0.4,1,0.7,1.6,0.7
					c0.6,0,1.2-0.2,1.6-0.7l18.6-18.6l18.6,18.6c0.4,0.4,1,0.7,1.6,0.7s1.2-0.2,1.6-0.7l18.6-18.6l18.6,18.6c0.4,0.4,1,0.7,1.6,0.7
					c0.6,0,1.2-0.2,1.6-0.7l18.6-18.6l18.6,18.6c0.4,0.4,1,0.7,1.6,0.7s1.2-0.2,1.6-0.7l18.6-18.6l8.3,8.3l1-5.4l-7.7-7.7
					c-0.9-0.9-2.3-0.9-3.2,0l-18.6,18.6l-18.6-18.6c-0.9-0.9-2.3-0.9-3.2,0l-18.6,18.6L1319,1688c-0.9-0.9-2.3-0.9-3.2,0l-18.6,18.6
					l-18.6-18.6c-0.9-0.9-2.3-0.9-3.2,0l-18.6,18.6l-18.6-18.6c-0.9-0.9-2.3-0.9-3.2,0l-18.6,18.6L1198,1688c-0.9-0.9-2.3-0.9-3.2,0
					l-1.5,1.5l1,5.4l2.1-2.1L1215,1711.4z"/>
				<path class="st33" d="M1216.6,1736.7c0.6,0,1.2-0.2,1.6-0.7l18.6-18.6l18.6,18.6c0.4,0.4,1,0.7,1.6,0.7c0.6,0,1.2-0.2,1.6-0.7
					l18.6-18.6l18.6,18.6c0.4,0.4,1,0.7,1.6,0.7s1.2-0.2,1.6-0.7l18.6-18.6l18.6,18.6c0.4,0.4,1,0.7,1.6,0.7c0.6,0,1.2-0.2,1.6-0.7
					l18.6-18.6l18.6,18.6c0.4,0.4,1,0.7,1.6,0.7s1.2-0.2,1.6-0.7l18.6-18.6l4.4,4.4l1-5.4l-3.8-3.8c-0.9-0.9-2.3-0.9-3.2,0
					l-18.6,18.6l-18.6-18.6c-0.9-0.9-2.3-0.9-3.2,0l-18.6,18.6l-18.6-18.6c-0.9-0.9-2.3-0.9-3.2,0l-18.6,18.6l-18.6-18.6
					c-0.9-0.9-2.3-0.9-3.2,0l-18.6,18.6l-18.6-18.6c-0.9-0.9-2.3-0.9-3.2,0l-18.6,18.6l-18.6-18.6c-0.2-0.2-0.3-0.3-0.5-0.4l1.4,7.7
					l16.1,16.1C1215.4,1736.5,1216,1736.7,1216.6,1736.7z"/>
			</g>
			<g>
				<path class="st32" d="M1471.8,1276.6c-1.8-21.5-5.5-42.9-11.3-63.8c-13.7,3.8-23.8,16.4-23.8,31.3c0,18,14.6,32.5,32.5,32.5
					C1470.1,1276.7,1471,1276.7,1471.8,1276.6z"/>
				
					<ellipse transform="matrix(0.9871 -0.1602 0.1602 0.9871 -181.7783 233.4486)" class="st32" cx="1357.1" cy="1244.2" rx="32.5" ry="32.5"/>
				<path class="st32" d="M1165.3,1244.2c0-15-10.2-27.7-24.1-31.4c-5.8,20.9-9.5,42.3-11.3,63.8c0.9,0.1,1.9,0.1,2.8,0.1
					C1150.7,1276.7,1165.3,1262.2,1165.3,1244.2z"/>
				
					<ellipse transform="matrix(0.9871 -0.1602 0.1602 0.9871 -183.2265 215.483)" class="st32" cx="1244.9" cy="1244.2" rx="32.5" ry="32.5"/>
			</g>
		</g>
	</g>
</g>
</svg>
